<?xml version="1.0" encoding="UTF-8" standalone="no"?>
<svg width="50px" height="50px" viewBox="0 0 50 50" version="1.1" xmlns="http://www.w3.org/2000/svg" xmlns:xlink="http://www.w3.org/1999/xlink">
    <!-- Generator: Sketch 39.1 (31720) - http://www.bohemiancoding.com/sketch -->
    <title>benefits-4</title>
    <desc>Created with Sketch.</desc>
    <defs></defs>
    <g id="Page-1" stroke="none" stroke-width="1" fill="none" fill-rule="evenodd">
        <g id="benefits-4" fill="#F7B926">
            <g id="Group-4" transform="translate(5.000000, 6.000000)">
                <path d="M31.8502092,26.8648727 C32.1376664,27.3508357 32.2824314,27.9175577 32.2824314,28.5670269 C32.2824314,29.5635532 31.9852734,30.3924319 31.3912891,31.0573073 C30.7964756,31.7221828 29.9401565,32.114548 28.8176056,32.2320836 L28.8176056,33.9368883 L27.3886106,33.9368883 L27.3886106,32.2394555 C25.5203458,32.0477871 24.3638008,30.961059 23.9168202,28.9840753 L26.1262695,28.4080763 C26.330234,29.651767 27.0082086,30.2744821 28.1593642,30.2744821 C28.6972168,30.2744821 29.0950305,30.1422856 29.3480791,29.8744138 C29.6012106,29.6076187 29.7288957,29.2883095 29.7288957,28.9106052 C29.7288957,28.5201452 29.6012106,28.223697 29.3480791,28.0249881 C29.0950305,27.82396 28.53048,27.5692581 27.6563347,27.2600541 C26.8707398,26.9878751 26.2566907,26.7199205 25.814436,26.4505577 C25.3728446,26.1854192 25.0141656,25.815004 24.739394,25.3364957 C24.4615545,24.8559167 24.3241687,24.2965665 24.3241687,23.6610128 C24.3241687,22.8268331 24.5722426,22.0741579 25.0632498,21.406549 C25.556993,20.7396856 26.3301511,20.3325767 27.3885277,20.1830688 L27.3885277,18.8658252 L28.8175227,18.8658252 L28.8175227,20.1830688 C30.413752,20.3744887 31.4499911,21.2770859 31.9216796,22.8909434 L29.9493597,23.6977065 C29.5666362,22.591679 28.9745588,22.0373814 28.1693137,22.0373814 C27.7665253,22.0373814 27.4425866,22.1598868 27.1992387,22.4077967 C26.953901,22.6555409 26.8312735,22.9548052 26.8312735,23.3080747 C26.8312735,23.6663968 26.9489262,23.940895 27.1845632,24.1346341 C27.4206977,24.3259711 27.9236443,24.5641071 28.6972168,24.8458943 C29.5446644,25.1550983 30.2125237,25.44931 30.6934984,25.7242224 C31.1772922,25.9993005 31.5603475,26.3816432 31.8502092,26.8648727 L31.8502092,26.8648727 Z M40.6701804,26.4010254 C40.6701804,33.3384424 35.0425849,38.9607693 28.0985894,38.9607693 C21.1542623,38.9607693 15.526501,33.3384424 15.526501,26.4010254 C15.526501,19.4641054 21.1542623,13.8417785 28.0985894,13.8417785 C35.0425849,13.8417785 40.6701804,19.4641054 40.6701804,26.4010254 L40.6701804,26.4010254 Z M38.1561109,26.4010254 C38.1561109,20.8598718 33.6453453,16.3537604 28.0985894,16.3537604 C22.5519993,16.3537604 18.040985,20.8598718 18.040985,26.4010254 C18.040985,31.9425103 22.5519164,36.4488702 28.0985894,36.4488702 C33.6452624,36.4488702 38.1561109,31.9425103 38.1561109,26.4010254 L38.1561109,26.4010254 Z M20.5552203,3.79434789 L35.641544,3.79434789 C36.3365156,3.79434789 36.8984129,3.37224679 36.8984129,2.85224078 L36.8984129,0.968275061 C36.8984129,0.448351877 36.3365156,0.0265821055 35.641544,0.0265821055 L20.5552203,0.0265821055 C19.8602486,0.0265821055 19.2979368,0.448351877 19.2979368,0.968275061 L19.2979368,2.85224078 C19.2980197,3.37224679 19.8602486,3.79434789 20.5552203,3.79434789 L20.5552203,3.79434789 Z M20.5552203,8.8180632 L35.641544,8.8180632 C36.3365156,8.8180632 36.8984129,8.39612777 36.8984129,7.87612176 L36.8984129,5.99223887 C36.8984129,5.47215002 36.3365156,5.05013176 35.641544,5.05013176 L20.5552203,5.05013176 C19.8602486,5.05013176 19.2979368,5.47206719 19.2979368,5.99223887 L19.2979368,7.87620459 C19.2980197,8.39612777 19.8602486,8.8180632 20.5552203,8.8180632 L20.5552203,8.8180632 Z M1.69721198,33.9368883 L16.5232737,33.9368883 C15.7720045,32.7887832 15.1900425,31.5204092 14.8045828,30.1689568 L1.69721198,30.1689568 C1.00240616,30.168874 0.440177253,30.5906438 0.440177253,31.1113953 L0.440177253,32.9946983 C0.440177253,33.5147044 1.00240616,33.9368883 1.69721198,33.9368883 L1.69721198,33.9368883 Z M16.7835357,35.1928378 L1.69721198,35.1928378 C1.00240616,35.1928378 0.440177253,35.6145248 0.440177253,36.1345308 L0.440177253,38.0186621 C0.440177253,38.5385853 1.00240616,38.9607693 1.69721198,38.9607693 L16.7835357,38.9607693 C17.4785073,38.9607693 18.040985,38.5385853 18.040985,38.0186621 L18.040985,36.1345308 C18.040985,35.6145248 17.4785902,35.1928378 16.7835357,35.1928378 L16.7835357,35.1928378 Z M1.69721198,28.9133386 L14.5099951,28.9133386 C14.3577679,28.0964703 14.2695491,27.2599713 14.2695491,26.4010254 C14.2695491,25.9769364 14.2939254,25.5598051 14.3332259,25.1454072 L1.69721198,25.1454072 C1.00240616,25.1454072 0.440177253,25.5671769 0.440177253,26.0875143 L0.440177253,27.9708174 C0.440177253,28.4915688 1.00240616,28.9133386 1.69721198,28.9133386 L1.69721198,28.9133386 Z M20.5552203,13.8417785 L22.3719965,13.8417785 C24.1179656,13.0421388 26.0527262,12.585829 28.0985065,12.585829 C30.1408874,12.585829 32.0787986,13.0421388 33.8244361,13.8417785 L35.641544,13.8417785 C36.3365156,13.8417785 36.8984129,13.4198431 36.8984129,12.8999199 L36.8984129,11.0159542 C36.8984129,10.496031 36.3365156,10.0738471 35.641544,10.0738471 L20.5552203,10.0738471 C19.8602486,10.0738471 19.2979368,10.496031 19.2979368,11.0159542 L19.2979368,12.8999199 C19.2980197,13.4198431 19.8602486,13.8417785 20.5552203,13.8417785 L20.5552203,13.8417785 Z M1.69721198,13.8417785 L16.7835357,13.8417785 C17.4785073,13.8417785 18.040985,13.4198431 18.040985,12.8999199 L18.040985,11.0159542 C18.040985,10.496031 17.4785073,10.0738471 16.7835357,10.0738471 L1.69721198,10.0738471 C1.00240616,10.0738471 0.440177253,10.496031 0.440177253,11.0159542 L0.440177253,12.8999199 C0.440177253,13.4198431 1.00240616,13.8417785 1.69721198,13.8417785 L1.69721198,13.8417785 Z M1.69721198,23.8894576 L14.5099951,23.8894576 C14.7554987,22.5549854 15.1951001,21.291664 15.7968783,20.1215262 L1.69721198,20.1215262 C1.00240616,20.1215262 0.440177253,20.5432131 0.440177253,21.0632192 L0.440177253,22.9477647 C0.440177253,23.4676879 1.00240616,23.8894576 1.69721198,23.8894576 L1.69721198,23.8894576 Z M1.69721198,18.8656595 L16.5232737,18.8656595 C16.9702544,18.1789169 17.4809947,17.541044 18.040985,16.9473194 L18.040985,16.0396695 C18.040985,15.5197463 17.4787561,15.0979765 16.7839503,15.0979765 L1.69721198,15.0979765 C1.00240616,15.0979765 0.440177253,15.5196635 0.440177253,16.0396695 L0.440177253,17.9236352 C0.440177253,18.4435584 1.00240616,18.8656595 1.69721198,18.8656595 L1.69721198,18.8656595 Z" id="Shape"></path>
            </g>
        </g>
    </g>
</svg>