<?xml version="1.0" encoding="UTF-8" standalone="no"?>
<svg width="50px" height="50px" viewBox="0 0 50 50" version="1.1" xmlns="http://www.w3.org/2000/svg" xmlns:xlink="http://www.w3.org/1999/xlink">
    <!-- Generator: Sketch 39.1 (31720) - http://www.bohemiancoding.com/sketch -->
    <title>benefits-2</title>
    <desc>Created with Sketch.</desc>
    <defs></defs>
    <g id="Page-1" stroke="none" stroke-width="1" fill="none" fill-rule="evenodd">
        <g id="benefits-2" fill="#F7B926">
            <g id="Group-2" transform="translate(2.000000, 1.000000)">
                <path d="M32.9102988,36.105034 C32.9102988,35.4586473 32.7660965,34.841258 32.5056908,34.2764313 C32.4788523,34.1328387 32.4481694,33.9894664 32.4097977,33.8440386 L29.5892923,26.7697563 L29.5702152,26.7061086 C28.5833575,23.7322893 27.1791979,20.9799519 23.6186761,20.9799519 L10.0054073,20.9799519 C6.35711648,20.9799519 5.06792704,23.8004884 4.05945347,26.6895911 L1.10918047,33.7811251 C0.682666438,34.4727332 0.440177253,35.263887 0.440177253,36.105034 L0.440177253,38.306346 C0.440177253,38.6466809 0.4799272,38.9796012 0.555510129,39.3002619 C0.482030755,39.4939944 0.440177253,39.7027762 0.440177253,39.9228634 L0.440177253,46.4700524 C0.440177253,47.4301257 1.20920817,48.2085794 2.15783921,48.2085794 L5.72227791,48.2085794 C6.67040119,48.2085794 7.43943211,47.4301257 7.43943211,46.4700524 L7.43943211,43.1959807 L26.1146537,43.1959807 L26.1146537,46.4700524 C26.1146537,47.4301257 26.8838297,48.2085794 27.8325332,48.2085794 L31.1928545,48.2085794 C32.1418482,48.2085794 32.9107341,47.4301257 32.9107341,46.4700524 L32.9107341,39.9221292 C32.9107341,39.7028496 32.8684453,39.4931135 32.7955463,39.3000417 C32.870839,38.9788671 32.9107341,38.6463138 32.9107341,38.3060523 L32.9107341,36.1051074 L32.9102988,36.1051074 L32.9102988,36.105034 Z M6.1527089,27.3998457 C7.27578999,24.1930188 8.1789407,23.2140787 10.0054073,23.2140787 L23.6178782,23.2140787 C25.4309256,23.2140787 26.4404872,24.3059254 27.4663695,27.3860443 L29.5245898,31.6073423 C28.8525401,31.3554681 28.112959,31.2156929 27.335949,31.2156929 L6.01452706,31.2156929 C5.31491348,31.2156929 4.64634548,31.3295539 4.02949594,31.5356195 L6.1527089,27.3998457 L6.1527089,27.3998457 Z M7.92078366,39.1423541 L4.15991639,39.1423541 C3.48278909,39.1423541 2.93361601,38.5860431 2.93361601,37.9008218 C2.93361601,37.2153803 3.48278909,36.6594363 4.15991639,36.6594363 L7.92078366,36.6594363 C8.5982011,36.6594363 9.14737418,37.2153803 9.14737418,37.9008218 C9.14737418,38.5860431 8.59783842,39.1423541 7.92078366,39.1423541 L7.92078366,39.1423541 Z M21.206188,38.89371 L12.4582982,38.89371 C12.0293904,38.89371 11.6818685,38.5417761 11.6818685,38.1079152 C11.6818685,37.6732467 12.0293904,37.3214596 12.4582982,37.3214596 L21.206188,37.3214596 C21.6356035,37.3214596 21.9830529,37.6732467 21.9830529,38.1079152 C21.9830529,38.5417761 21.6356035,38.89371 21.206188,38.89371 L21.206188,38.89371 Z M29.0957546,39.1423541 L25.3350324,39.1423541 C24.6573249,39.1423541 24.1084419,38.5860431 24.1084419,37.9008218 C24.1084419,37.2153803 24.6577601,36.6594363 25.3350324,36.6594363 L29.0957546,36.6594363 C29.7734622,36.6594363 30.3227804,37.2153803 30.3227804,37.9008218 C30.3227804,38.5860431 29.7734622,39.1423541 29.0957546,39.1423541 L29.0957546,39.1423541 Z" id="Shape"></path>
                <path d="M31.3690698,17.1244539 C31.3202967,16.7195969 31.1664995,16.3503594 30.9301123,16.0420325 L32.5530572,5.96542987 C32.6134776,5.59049853 32.3730536,5.23304588 32.0032519,5.1475724 L31.9851192,5.14346755 C31.6153175,5.05799406 31.2426702,5.27396193 31.1326164,5.63737322 L28.176056,15.4057814 C27.4474381,15.7723044 26.941641,16.5194526 26.941641,17.3896137 C26.941641,18.6182869 27.9403306,19.6180155 29.1683924,19.6180155 C29.3972354,19.6180155 29.6136368,19.5733256 29.8215014,19.5089722 L35.9981424,22.7202198 C36.3379655,22.8968606 36.7562756,22.7865594 36.9648019,22.4651897 L36.974133,22.4508227 C37.1827255,22.1295854 37.1133711,21.7023504 36.8137179,21.4636735 L31.3690698,17.1244539 L31.3690698,17.1244539 Z M28.068517,17.3896137 C28.068517,16.7829572 28.5620712,16.289184 29.1684586,16.289184 C29.7753754,16.289184 30.2689297,16.7829572 30.2689297,17.3896137 C30.2689297,17.9967337 29.7753754,18.4905732 29.1684586,18.4905732 C28.5620712,18.4905732 28.068517,17.9967999 28.068517,17.3896137 L28.068517,17.3896137 Z M45.9350074,17.3896137 C45.9350074,24.8483839 41.0424809,31.1827572 34.3003503,33.3567367 L34.3000194,30.9682459 C39.7766314,28.8896048 43.6811892,23.5883285 43.6811892,17.3896137 C43.6811892,9.38383975 37.1706149,2.87044214 29.1684586,2.87044214 C21.1662361,2.87044214 14.655728,9.38383975 14.655728,17.3896137 C14.655728,18.192707 14.7241559,18.9798443 14.8501585,19.747914 L12.570928,19.747914 C12.4619993,18.976865 12.4019099,18.1902573 12.4019099,17.3896137 C12.4019099,8.14027001 19.9232181,0.61562371 29.1684586,0.61562371 C38.4136992,0.61562371 45.9350074,8.14027001 45.9350074,17.3896137 L45.9350074,17.3896137 Z" id="Shape"></path>
            </g>
        </g>
    </g>
</svg>