<?xml version="1.0" encoding="UTF-8" standalone="no"?>
<svg width="50px" height="50px" viewBox="0 0 50 50" version="1.1" xmlns="http://www.w3.org/2000/svg" xmlns:xlink="http://www.w3.org/1999/xlink">
    <!-- Generator: Sketch 39.1 (31720) - http://www.bohemiancoding.com/sketch -->
    <title>benefits-1</title>
    <desc>Created with Sketch.</desc>
    <defs></defs>
    <g id="Page-1" stroke="none" stroke-width="1" fill="none" fill-rule="evenodd">
        <g id="benefits-1" fill="#F7B926">
            <g id="Group" transform="translate(7.000000, 4.000000)">
                <path d="M36.3919811,12.594062 L36.341158,11.463833 L35.2601025,11.190514 C28.8154114,9.56158599 28.6842551,3.38877116 28.681632,3.1337622 L28.681632,1.9299601 L27.5268011,1.65630819 C27.3008844,1.60304261 21.9592175,0.347639485 18.3737331,0.347639485 C14.7882486,0.347639485 9.44625388,1.60304261 9.22099299,1.65597528 L8.06583417,1.92962719 L8.06583417,3.13342929 C8.06583417,3.39443063 7.99107509,9.54627214 1.4873637,11.190514 L0.406308169,11.463833 L0.355813007,12.594062 C0.346632068,12.7944738 0.159406497,17.5753924 2.19200075,23.5358107 C4.07212583,29.0487982 8.28716037,36.6497964 17.6907368,41.5572208 L18.3737331,41.9134344 L19.0567293,41.5572208 C28.4609616,36.6497964 32.6750124,29.0487982 34.5557933,23.5358107 C36.5880597,17.5753924 36.4005062,12.7944738 36.3919811,12.594062 L36.3919811,12.594062 Z M10.9647156,4.37651475 C12.6330233,4.02596065 15.9089789,3.40475083 18.2524135,3.38377751 L18.2524135,21.0073603 L4.53805847,21.0073603 C3.64062171,17.8543709 3.40781934,15.1924236 3.3530616,13.7922046 C8.62357619,11.9472181 10.5522291,7.40832494 10.9647156,4.37651475 L10.9647156,4.37651475 Z M18.4950526,38.4208769 L18.4950526,21.2540465 L32.1398949,21.2540465 C32.0054597,21.7117976 31.8572531,22.179203 31.6933078,22.6545983 C29.3065916,29.566806 24.8672799,34.8657324 18.4950526,38.4208769 L18.4950526,38.4208769 Z" id="Shape"></path>
            </g>
        </g>
    </g>
</svg>