<?xml version="1.0" encoding="UTF-8" standalone="no"?>
<svg width="50px" height="50px" viewBox="0 0 50 50" version="1.1" xmlns="http://www.w3.org/2000/svg" xmlns:xlink="http://www.w3.org/1999/xlink">
    <!-- Generator: Sketch 39.1 (31720) - http://www.bohemiancoding.com/sketch -->
    <title>benefits-3</title>
    <desc>Created with Sketch.</desc>
    <defs></defs>
    <g id="Page-1" stroke="none" stroke-width="1" fill="none" fill-rule="evenodd">
        <g id="benefits-3" fill="#F7B926">
            <g id="Group-3" transform="translate(6.000000, 7.000000)">
                <path d="M23.4730628,20.8670402 C23.0419127,20.8670402 22.7194903,21.1882616 22.5654593,21.3798355 C22.2214111,21.8080443 22.0238719,22.4228106 22.0238719,23.0662914 C22.0238719,23.7097722 22.2214111,24.3245385 22.5654593,24.7528338 C22.7194903,24.9443212 23.0419127,25.2655427 23.4730628,25.2655427 C23.9042129,25.2655427 24.2266352,24.9443212 24.3806662,24.7528338 C24.7247144,24.3245385 24.9222536,23.7097722 24.9222536,23.0662914 C24.9222536,22.4228106 24.7247144,21.8080443 24.3806662,21.3798355 C24.2268061,21.1881751 23.9042129,20.8670402 23.4730628,20.8670402 L23.4730628,20.8670402 Z" id="Shape"></path>
                <path d="M14.2221408,15.9048866 C14.6532909,15.9048866 14.9757132,15.5836651 15.1297442,15.3921777 C15.4738779,14.9638824 15.6713316,14.3492026 15.6713316,13.7056353 C15.6713316,13.0620681 15.4738779,12.4474747 15.1297442,12.0191795 C14.9757132,11.827692 14.6532909,11.5064706 14.2221408,11.5064706 C13.7909907,11.5064706 13.4685683,11.827692 13.3145373,12.0191795 C12.9704036,12.4474747 12.7729499,13.0620681 12.7729499,13.7056353 C12.7729499,14.3492026 12.9704036,14.9638824 13.3145373,15.3921777 C13.4684829,15.5837516 13.7909907,15.9048866 14.2221408,15.9048866 L14.2221408,15.9048866 Z" id="Shape"></path>
                <path d="M37.2075526,17.3948387 L32.5931182,13.866592 L34.2769457,8.26632 C34.3890926,7.8935509 34.3218216,7.48929966 34.0954763,7.17413247 C33.8692165,6.85905176 33.5096114,6.66964008 33.1247902,6.66246146 L27.3403355,6.55564711 L25.4542676,1.02058805 C25.3287007,0.651970436 25.0392728,0.364393341 24.6727439,0.244000163 C24.3066424,0.123520496 23.9052386,0.184149532 23.5893126,0.407638017 L18.8474308,3.76463572 L14.105549,0.407465038 C13.7898795,0.184063042 13.3886466,0.123347517 13.0222032,0.243827184 C12.6555888,0.364306852 12.3664174,0.651883947 12.2406795,1.02041508 L10.354697,6.55538764 L4.57024233,6.66228848 C4.18542121,6.6694671 3.825987,6.85879229 3.59964174,7.17395949 C3.37329649,7.48912669 3.30593997,7.89346441 3.41800139,8.26614702 L5.10199982,13.8663326 L0.487650934,17.3948387 C0.180443667,17.6295708 0,17.9966316 0,18.3860066 C0,18.7754682 0.180443667,19.1424425 0.487650934,19.3772611 L5.1020853,22.9055077 L3.41825782,28.5056933 C3.3061964,28.8784624 3.37355292,29.2827136 3.59989818,29.5978808 C3.82624343,29.9129615 4.18576312,30.1023732 4.57049877,30.1095518 L10.3549535,30.2164526 L12.240936,35.7514252 C12.3665029,36.1200428 12.6558453,36.4076199 13.0222887,36.5280131 C13.3885611,36.6485792 13.7898795,36.5878637 14.1056345,36.3642887 L18.8475163,33.007291 L23.589569,36.3643752 C23.7983913,36.5121855 24.0446529,36.5888151 24.2935643,36.5888151 C24.4207553,36.5888151 24.5488011,36.5689226 24.6729149,36.5280131 C25.0392728,36.4075334 25.3287007,36.1199563 25.4542676,35.7514252 L27.3401646,30.2164526 L33.1248757,30.1094653 C33.5096968,30.1022867 33.8691311,29.9129615 34.0953908,29.5977943 C34.3217361,29.2826271 34.3891781,28.8783759 34.2770312,28.5056068 L32.5930328,22.9055077 L37.2074671,19.3771746 C37.5146744,19.142356 37.6951181,18.7753817 37.6951181,18.3859201 C37.6951181,17.9964586 37.5147599,17.6294843 37.2075526,17.3948387 L37.2075526,17.3948387 Z M14.2221408,9.78144047 C15.9641786,9.78144047 17.3763576,11.5383852 17.3763576,13.7058083 C17.3763576,15.873318 15.9641786,17.6302627 14.2221408,17.6302627 C12.4801029,17.6302627 11.0679239,15.873318 11.0679239,13.7058083 C11.0678384,11.5383852 12.4801029,9.78144047 14.2221408,9.78144047 L14.2221408,9.78144047 Z M14.0216098,27.0073517 C13.8244125,27.284896 13.5047255,27.4506096 13.1664043,27.4506096 C12.945786,27.4506096 12.733972,27.3814182 12.5541267,27.2506463 C12.0832294,26.9084079 11.9753564,26.2423534 12.3136776,25.7658836 L23.6736792,9.76448856 C23.870791,9.48694423 24.1904781,9.32123063 24.5288847,9.32123063 C24.7494175,9.32123063 24.9612315,9.39042211 25.1410768,9.52119401 C25.6119741,9.86343238 25.7198471,10.5294869 25.3815259,11.0059567 L14.0216098,27.0073517 L14.0216098,27.0073517 Z M23.4730628,26.9904863 C21.7310249,26.9904863 20.3188459,25.2336281 20.3188459,23.0660319 C20.3188459,20.8986953 21.7310249,19.1417506 23.4730628,19.1417506 C25.2151006,19.1417506 26.6271941,20.8986953 26.6271941,23.0660319 C26.6273651,25.2335416 25.2151006,26.9904863 23.4730628,26.9904863 L23.4730628,26.9904863 Z" id="Shape"></path>
            </g>
        </g>
    </g>
</svg>