<?xml version="1.0" encoding="UTF-8" standalone="no"?>
<svg width="600px" height="241px" viewBox="0 0 600 241" version="1.1" xmlns="http://www.w3.org/2000/svg" xmlns:xlink="http://www.w3.org/1999/xlink">
    <!-- Generator: Sketch 40.2 (33826) - http://www.bohemiancoding.com/sketch -->
    <title>Group 3 Copy</title>
    <desc>Created with Sketch.</desc>
    <defs>
        <rect id="path-1" x="0" y="0" width="600" height="24" rx="12"></rect>
        <mask id="mask-2" maskContentUnits="userSpaceOnUse" maskUnits="objectBoundingBox" x="0" y="0" width="600" height="24" fill="white">
            <use xlink:href="#path-1"></use>
        </mask>
        <rect id="path-3" x="45" y="42" width="510" height="24" rx="12"></rect>
        <mask id="mask-4" maskContentUnits="userSpaceOnUse" maskUnits="objectBoundingBox" x="0" y="0" width="510" height="24" fill="white">
            <use xlink:href="#path-3"></use>
        </mask>
        <rect id="path-5" x="75" y="81" width="450" height="24" rx="12"></rect>
        <mask id="mask-6" maskContentUnits="userSpaceOnUse" maskUnits="objectBoundingBox" x="0" y="0" width="450" height="24" fill="white">
            <use xlink:href="#path-5"></use>
        </mask>
        <path d="M124.932884,29.5973057 C122.208528,13.2511651 133.431302,0 149.995303,0 L453.004697,0 C469.570646,0 480.790985,13.2540884 478.067116,29.5973057 L457.932884,150.402694 C455.208528,166.748835 439.564899,180 422.996241,180 L180.003759,180 C163.43314,180 147.790985,166.745912 145.067116,150.402694 L124.932884,29.5973057 Z" id="path-7"></path>
        <mask id="mask-8" maskContentUnits="userSpaceOnUse" maskUnits="objectBoundingBox" x="0" y="0" width="363" height="180" fill="white">
            <use xlink:href="#path-7"></use>
        </mask>
    </defs>
    <g id="Page-1" stroke="none" stroke-width="1" fill="none" fill-rule="evenodd">
        <g id="Desktop-HD" transform="translate(-420.000000, -194.000000)">
            <g id="Group-3-Copy" transform="translate(420.000000, 194.000000)">
                <g id="Group-2">
                    <g id="Group" transform="translate(0.000000, 39.000000)" stroke="#000000" stroke-width="14" fill="#F7B926">
                        <use id="Rectangle-2" mask="url(#mask-2)" xlink:href="#path-1"></use>
                        <use id="Rectangle-2-Copy" mask="url(#mask-4)" xlink:href="#path-3"></use>
                        <use id="Rectangle-2-Copy-2" mask="url(#mask-6)" xlink:href="#path-5"></use>
                    </g>
                    <use id="Rectangle" stroke="#000000" mask="url(#mask-8)" stroke-width="24" fill="#F7B926" xlink:href="#path-7"></use>
                    <path d="M175.570312,39.640625 L195.445312,39.640625 C198.757829,39.640625 201.300772,40.4609293 203.074219,42.1015625 C204.847665,43.7421957 205.734375,45.7734254 205.734375,48.1953125 C205.734375,50.2265727 205.101569,51.9687427 203.835938,53.421875 C202.992183,54.3906298 201.757821,55.1562472 200.132812,55.71875 C202.601575,56.312503 204.417963,57.332024 205.582031,58.7773438 C206.7461,60.2226635 207.328125,62.0390516 207.328125,64.2265625 C207.328125,66.0078214 206.914067,67.6093679 206.085938,69.03125 C205.257808,70.4531321 204.125007,71.5781209 202.6875,72.40625 C201.796871,72.9218776 200.453134,73.2968738 198.65625,73.53125 C196.265613,73.8437516 194.679691,74 193.898438,74 L175.570312,74 L175.570312,39.640625 Z M186.28125,53.1171875 L190.898438,53.1171875 C192.554696,53.1171875 193.707028,52.8320341 194.355469,52.2617188 C195.003909,51.6914034 195.328125,50.8671929 195.328125,49.7890625 C195.328125,48.7890575 195.003909,48.0078153 194.355469,47.4453125 C193.707028,46.8828097 192.578133,46.6015625 190.96875,46.6015625 L186.28125,46.6015625 L186.28125,53.1171875 Z M186.28125,66.6171875 L191.695312,66.6171875 C193.523447,66.6171875 194.812496,66.292972 195.5625,65.6445312 C196.312504,64.9960905 196.6875,64.1250055 196.6875,63.03125 C196.6875,62.0156199 196.31641,61.1992218 195.574219,60.5820312 C194.832028,59.9648407 193.531259,59.65625 191.671875,59.65625 L186.28125,59.65625 L186.28125,66.6171875 Z M211.546875,56.84375 C211.546875,51.234347 213.109359,46.8672031 216.234375,43.7421875 C219.359391,40.6171719 223.71091,39.0546875 229.289062,39.0546875 C235.007841,39.0546875 239.414047,40.5898284 242.507812,43.6601562 C245.601578,46.7304841 247.148438,51.0312223 247.148438,56.5625 C247.148438,60.5781451 246.472663,63.8710809 245.121094,66.4414062 C243.769524,69.0117316 241.816419,71.0117116 239.261719,72.4414062 C236.707018,73.8711009 233.523457,74.5859375 229.710938,74.5859375 C225.835918,74.5859375 222.628919,73.9687562 220.089844,72.734375 C217.550769,71.4999938 215.492195,69.5468884 213.914062,66.875 C212.33593,64.2031116 211.546875,60.8593951 211.546875,56.84375 L211.546875,56.84375 Z M222.164062,56.890625 C222.164062,60.3593923 222.808587,62.8515549 224.097656,64.3671875 C225.386725,65.8828201 227.140614,66.640625 229.359375,66.640625 C231.640636,66.640625 233.406244,65.8984449 234.65625,64.4140625 C235.906256,62.9296801 236.53125,60.2656442 236.53125,56.421875 C236.53125,53.1874838 235.878913,50.8242262 234.574219,49.3320312 C233.269525,47.8398363 231.500011,47.09375 229.265625,47.09375 C227.124989,47.09375 225.406256,47.8515549 224.109375,49.3671875 C222.812494,50.8828201 222.164062,53.3906075 222.164062,56.890625 L222.164062,56.890625 Z M251.53125,56.84375 C251.53125,51.234347 253.093734,46.8672031 256.21875,43.7421875 C259.343766,40.6171719 263.695285,39.0546875 269.273438,39.0546875 C274.992216,39.0546875 279.398422,40.5898284 282.492188,43.6601562 C285.585953,46.7304841 287.132812,51.0312223 287.132812,56.5625 C287.132812,60.5781451 286.457038,63.8710809 285.105469,66.4414062 C283.753899,69.0117316 281.800794,71.0117116 279.246094,72.4414062 C276.691393,73.8711009 273.507832,74.5859375 269.695312,74.5859375 C265.820293,74.5859375 262.613294,73.9687562 260.074219,72.734375 C257.535144,71.4999938 255.47657,69.5468884 253.898438,66.875 C252.320305,64.2031116 251.53125,60.8593951 251.53125,56.84375 L251.53125,56.84375 Z M262.148438,56.890625 C262.148438,60.3593923 262.792962,62.8515549 264.082031,64.3671875 C265.3711,65.8828201 267.124989,66.640625 269.34375,66.640625 C271.625011,66.640625 273.390619,65.8984449 274.640625,64.4140625 C275.890631,62.9296801 276.515625,60.2656442 276.515625,56.421875 C276.515625,53.1874838 275.863288,50.8242262 274.558594,49.3320312 C273.2539,47.8398363 271.484386,47.09375 269.25,47.09375 C267.109364,47.09375 265.390631,47.8515549 264.09375,49.3671875 C262.796869,50.8828201 262.148438,53.3906075 262.148438,56.890625 L262.148438,56.890625 Z M292.898438,39.640625 L303.515625,39.640625 L303.515625,52.625 L314.648438,39.640625 L328.757812,39.640625 L316.242188,52.6015625 L329.320312,74 L316.242188,74 L309,59.8671875 L303.515625,65.609375 L303.515625,74 L292.898438,74 L292.898438,39.640625 Z M333.257812,39.640625 L343.898438,39.640625 L343.898438,74 L333.257812,74 L333.257812,39.640625 Z M351.585938,39.640625 L361.5,39.640625 L374.4375,58.6484375 L374.4375,39.640625 L384.445312,39.640625 L384.445312,74 L374.4375,74 L361.570312,55.1328125 L361.570312,74 L351.585938,74 L351.585938,39.640625 Z M408.773438,61.5546875 L408.773438,54.40625 L425.179688,54.40625 L425.179688,69.0546875 C422.039047,71.1953232 419.261731,72.6523399 416.847656,73.4257812 C414.433582,74.1992226 411.570329,74.5859375 408.257812,74.5859375 C404.179667,74.5859375 400.855482,73.890632 398.285156,72.5 C395.714831,71.109368 393.722663,69.0390762 392.308594,66.2890625 C390.894524,63.5390488 390.1875,60.3828303 390.1875,56.8203125 C390.1875,53.0702937 390.96093,49.8086076 392.507812,47.0351562 C394.054695,44.2617049 396.320298,42.1562572 399.304688,40.71875 C401.632824,39.6093695 404.765605,39.0546875 408.703125,39.0546875 C412.500019,39.0546875 415.339834,39.3984341 417.222656,40.0859375 C419.105478,40.7734409 420.667963,41.8398365 421.910156,43.2851562 C423.15235,44.730476 424.085934,46.5624889 424.710938,48.78125 L414.46875,50.609375 C414.046873,49.3124935 413.332036,48.3203159 412.324219,47.6328125 C411.316401,46.9453091 410.031258,46.6015625 408.46875,46.6015625 C406.140613,46.6015625 404.285163,47.4101482 402.902344,49.0273438 C401.519524,50.6445393 400.828125,53.2031075 400.828125,56.703125 C400.828125,60.4218936 401.527337,63.078117 402.925781,64.671875 C404.324226,66.265633 406.273425,67.0625 408.773438,67.0625 C409.960943,67.0625 411.093745,66.8906267 412.171875,66.546875 C413.250005,66.2031233 414.484368,65.6171916 415.875,64.7890625 L415.875,61.5546875 L408.773438,61.5546875 Z M190.066406,107.640625 L204.035156,107.640625 L209.425781,128.546875 L214.792969,107.640625 L228.714844,107.640625 L228.714844,142 L220.042969,142 L220.042969,115.796875 L213.316406,142 L205.464844,142 L198.761719,115.796875 L198.761719,142 L190.066406,142 L190.066406,107.640625 Z M232.019531,107.640625 L243.808594,107.640625 L250.746094,119.242188 L257.683594,107.640625 L269.402344,107.640625 L256.042969,127.609375 L256.042969,142 L245.402344,142 L245.402344,127.609375 L232.019531,107.640625 Z M286.417969,107.640625 L318.691406,107.640625 L318.691406,116.125 L307.863281,116.125 L307.863281,142 L297.246094,142 L297.246094,116.125 L286.417969,116.125 L286.417969,107.640625 Z M344.636719,136.328125 L332.542969,136.328125 L330.878906,142 L320.027344,142 L332.941406,107.640625 L344.519531,107.640625 L357.433594,142 L346.324219,142 L344.636719,136.328125 Z M342.410156,128.898438 L338.613281,116.546875 L334.839844,128.898438 L342.410156,128.898438 Z M358.464844,107.640625 L370.160156,107.640625 L376.253906,118.210938 L382.160156,107.640625 L393.738281,107.640625 L383.050781,124.28125 L394.746094,142 L382.816406,142 L376.042969,130.960938 L369.246094,142 L357.386719,142 L369.246094,124.09375 L358.464844,107.640625 Z M398.589844,107.640625 L409.230469,107.640625 L409.230469,142 L398.589844,142 L398.589844,107.640625 Z" id="BOOKING-MY-TAXI" fill="#000000"></path>
                </g>
                <path d="M85.8359375,233 L85.8359375,211.589844 L78.1894531,211.589844 L78.1894531,207.230469 L98.6679688,207.230469 L98.6679688,211.589844 L91.0390625,211.589844 L91.0390625,233 L85.8359375,233 Z M105.681641,220.027344 L101.199219,219.21875 C101.703128,217.414053 102.570306,216.078129 103.800781,215.210938 C105.031256,214.343746 106.859363,213.910156 109.285156,213.910156 C111.488292,213.910156 113.128901,214.170896 114.207031,214.692383 C115.285162,215.21387 116.043943,215.875973 116.483398,216.678711 C116.922854,217.481449 117.142578,218.955067 117.142578,221.099609 L117.089844,226.865234 C117.089844,228.505868 117.168945,229.715816 117.327148,230.495117 C117.485352,231.274418 117.781248,232.109371 118.214844,233 L113.328125,233 C113.199218,232.671873 113.041017,232.18555 112.853516,231.541016 C112.771484,231.248045 112.712891,231.054688 112.677734,230.960938 C111.83398,231.781254 110.931645,232.396482 109.970703,232.806641 C109.009761,233.216799 107.98438,233.421875 106.894531,233.421875 C104.972647,233.421875 103.458013,232.900396 102.350586,231.857422 C101.243159,230.814448 100.689453,229.496102 100.689453,227.902344 C100.689453,226.847651 100.941404,225.907231 101.445312,225.081055 C101.949221,224.254879 102.655269,223.622073 103.563477,223.182617 C104.471684,222.743162 105.781241,222.359377 107.492188,222.03125 C109.800793,221.597654 111.400386,221.193361 112.291016,220.818359 L112.291016,220.326172 C112.291016,219.376948 112.056643,218.700197 111.587891,218.295898 C111.119138,217.8916 110.234382,217.689453 108.933594,217.689453 C108.054683,217.689453 107.369143,217.862303 106.876953,218.208008 C106.384763,218.553713 105.98633,219.160152 105.681641,220.027344 L105.681641,220.027344 Z M112.291016,224.035156 C111.6582,224.246095 110.656257,224.498045 109.285156,224.791016 C107.914056,225.083986 107.01758,225.371092 106.595703,225.652344 C105.951169,226.109377 105.628906,226.68945 105.628906,227.392578 C105.628906,228.083988 105.886716,228.681638 106.402344,229.185547 C106.917971,229.689456 107.574215,229.941406 108.371094,229.941406 C109.261723,229.941406 110.111324,229.64844 110.919922,229.0625 C111.517581,228.617185 111.910155,228.072269 112.097656,227.427734 C112.226563,227.005857 112.291016,226.203131 112.291016,225.019531 L112.291016,224.035156 Z M119.638672,233 L126.371094,223.384766 L119.919922,214.332031 L125.949219,214.332031 L129.253906,219.464844 L132.734375,214.332031 L138.535156,214.332031 L132.207031,223.173828 L139.115234,233 L133.050781,233 L129.253906,227.216797 L125.421875,233 L119.638672,233 Z M142.033203,211.800781 L142.033203,207.230469 L146.972656,207.230469 L146.972656,211.800781 L142.033203,211.800781 Z M142.033203,233 L142.033203,214.332031 L146.972656,214.332031 L146.972656,233 L142.033203,233 Z M161.826172,233 L161.826172,207.230469 L166.765625,207.230469 L166.765625,216.511719 C168.28907,214.777335 170.09374,213.910156 172.179688,213.910156 C174.453136,213.910156 176.333977,214.73339 177.822266,216.379883 C179.310554,218.026375 180.054688,220.39061 180.054688,223.472656 C180.054688,226.660172 179.295906,229.115226 177.77832,230.837891 C176.260735,232.560555 174.41798,233.421875 172.25,233.421875 C171.183588,233.421875 170.131841,233.155276 169.094727,232.62207 C168.057612,232.088865 167.164066,231.300786 166.414062,230.257812 L166.414062,233 L161.826172,233 Z M166.730469,223.261719 C166.730469,225.195322 167.035153,226.624995 167.644531,227.550781 C168.500004,228.863288 169.636712,229.519531 171.054688,229.519531 C172.144537,229.519531 173.073238,229.053716 173.84082,228.12207 C174.608402,227.190425 174.992188,225.722666 174.992188,223.71875 C174.992188,221.585927 174.605473,220.047856 173.832031,219.104492 C173.05859,218.161128 172.068365,217.689453 170.861328,217.689453 C169.677728,217.689453 168.693363,218.149409 167.908203,219.069336 C167.123043,219.989262 166.730469,221.386709 166.730469,223.261719 L166.730469,223.261719 Z M182.884766,223.402344 C182.884766,221.761711 183.289058,220.173836 184.097656,218.638672 C184.906254,217.103508 186.05175,215.931645 187.53418,215.123047 C189.016609,214.314449 190.671866,213.910156 192.5,213.910156 C195.324233,213.910156 197.638663,214.827139 199.443359,216.661133 C201.248056,218.495126 202.150391,220.812486 202.150391,223.613281 C202.150391,226.437514 201.239267,228.778311 199.416992,230.635742 C197.594717,232.493173 195.300795,233.421875 192.535156,233.421875 C190.82421,233.421875 189.192391,233.03516 187.639648,232.261719 C186.086906,231.488277 184.906254,230.3545 184.097656,228.860352 C183.289058,227.366203 182.884766,225.546886 182.884766,223.402344 L182.884766,223.402344 Z M187.947266,223.666016 C187.947266,225.517587 188.386714,226.935542 189.265625,227.919922 C190.144536,228.904302 191.228509,229.396484 192.517578,229.396484 C193.806647,229.396484 194.887691,228.904302 195.760742,227.919922 C196.633793,226.935542 197.070312,225.505869 197.070312,223.630859 C197.070312,221.802725 196.633793,220.396489 195.760742,219.412109 C194.887691,218.427729 193.806647,217.935547 192.517578,217.935547 C191.228509,217.935547 190.144536,218.427729 189.265625,219.412109 C188.386714,220.396489 187.947266,221.814444 187.947266,223.666016 L187.947266,223.666016 Z M204.875,223.402344 C204.875,221.761711 205.279293,220.173836 206.087891,218.638672 C206.896488,217.103508 208.041985,215.931645 209.524414,215.123047 C211.006843,214.314449 212.6621,213.910156 214.490234,213.910156 C217.314467,213.910156 219.628897,214.827139 221.433594,216.661133 C223.23829,218.495126 224.140625,220.812486 224.140625,223.613281 C224.140625,226.437514 223.229501,228.778311 221.407227,230.635742 C219.584952,232.493173 217.291029,233.421875 214.525391,233.421875 C212.814445,233.421875 211.182625,233.03516 209.629883,232.261719 C208.077141,231.488277 206.896488,230.3545 206.087891,228.860352 C205.279293,227.366203 204.875,225.546886 204.875,223.402344 L204.875,223.402344 Z M209.9375,223.666016 C209.9375,225.517587 210.376949,226.935542 211.255859,227.919922 C212.13477,228.904302 213.218744,229.396484 214.507812,229.396484 C215.796881,229.396484 216.877925,228.904302 217.750977,227.919922 C218.624028,226.935542 219.060547,225.505869 219.060547,223.630859 C219.060547,221.802725 218.624028,220.396489 217.750977,219.412109 C216.877925,218.427729 215.796881,217.935547 214.507812,217.935547 C213.218744,217.935547 212.13477,218.427729 211.255859,219.412109 C210.376949,220.396489 209.9375,221.814444 209.9375,223.666016 L209.9375,223.666016 Z M227.832031,233 L227.832031,207.230469 L232.771484,207.230469 L232.771484,220.90625 L238.554688,214.332031 L244.636719,214.332031 L238.255859,221.152344 L245.09375,233 L239.767578,233 L235.074219,224.615234 L232.771484,227.023438 L232.771484,233 L227.832031,233 Z M248.029297,211.800781 L248.029297,207.230469 L252.96875,207.230469 L252.96875,211.800781 L248.029297,211.800781 Z M248.029297,233 L248.029297,214.332031 L252.96875,214.332031 L252.96875,233 L248.029297,233 Z M275.011719,233 L270.072266,233 L270.072266,223.472656 C270.072266,221.457021 269.966798,220.153323 269.755859,219.561523 C269.544921,218.969724 269.202151,218.509767 268.727539,218.181641 C268.252927,217.853514 267.681644,217.689453 267.013672,217.689453 C266.158199,217.689453 265.390628,217.923826 264.710938,218.392578 C264.031247,218.86133 263.565431,219.482418 263.313477,220.255859 C263.061522,221.029301 262.935547,222.458974 262.935547,224.544922 L262.935547,233 L257.996094,233 L257.996094,214.332031 L262.583984,214.332031 L262.583984,217.074219 C264.212899,214.964833 266.26366,213.910156 268.736328,213.910156 C269.826177,213.910156 270.822261,214.106443 271.724609,214.499023 C272.626958,214.891604 273.309568,215.392575 273.772461,216.001953 C274.235354,216.611331 274.557616,217.302731 274.739258,218.076172 C274.920899,218.849613 275.011719,219.957024 275.011719,221.398438 L275.011719,233 Z M279.564453,234.230469 L285.207031,234.916016 C285.300782,235.572269 285.517576,236.023436 285.857422,236.269531 C286.326174,236.621096 287.064448,236.796875 288.072266,236.796875 C289.361335,236.796875 290.328122,236.603518 290.972656,236.216797 C291.406252,235.958983 291.734374,235.542972 291.957031,234.96875 C292.109376,234.558592 292.185547,233.80274 292.185547,232.701172 L292.185547,229.976562 C290.708977,231.992198 288.845714,233 286.595703,233 C284.087878,233 282.10157,231.939464 280.636719,229.818359 C279.488276,228.14257 278.914062,226.056653 278.914062,223.560547 C278.914062,220.431625 279.666985,218.041024 281.172852,216.388672 C282.678718,214.73632 284.55077,213.910156 286.789062,213.910156 C289.097668,213.910156 291.001946,214.923818 292.501953,216.951172 L292.501953,214.332031 L297.125,214.332031 L297.125,231.083984 C297.125,233.28712 296.943361,234.933588 296.580078,236.023438 C296.216795,237.113287 295.707035,237.968747 295.050781,238.589844 C294.394528,239.210941 293.51856,239.697264 292.422852,240.048828 C291.327143,240.400392 289.941415,240.576172 288.265625,240.576172 C285.101547,240.576172 282.857428,240.034185 281.533203,238.950195 C280.208978,237.866206 279.546875,236.492196 279.546875,234.828125 C279.546875,234.664062 279.552734,234.464845 279.564453,234.230469 L279.564453,234.230469 Z M283.976562,223.279297 C283.976562,225.259776 284.360348,226.709956 285.12793,227.629883 C285.895512,228.549809 286.841791,229.009766 287.966797,229.009766 C289.173834,229.009766 290.193355,228.538091 291.025391,227.594727 C291.857426,226.651362 292.273438,225.253916 292.273438,223.402344 C292.273438,221.46874 291.875004,220.033208 291.078125,219.095703 C290.281246,218.158198 289.273444,217.689453 288.054688,217.689453 C286.871088,217.689453 285.895512,218.149409 285.12793,219.069336 C284.360348,219.989262 283.976562,221.392569 283.976562,223.279297 L283.976562,223.279297 Z M301.888672,207.300781 L306.828125,207.300781 L306.828125,210.833984 C306.828125,212.263679 306.705079,213.391597 306.458984,214.217773 C306.212889,215.043949 305.747074,215.785153 305.061523,216.441406 C304.375973,217.09766 303.505865,217.613279 302.451172,217.988281 L301.484375,215.949219 C302.480474,215.621092 303.189451,215.169925 303.611328,214.595703 C304.033205,214.021482 304.255859,213.236333 304.279297,212.240234 L301.888672,212.240234 L301.888672,207.300781 Z M310.273438,227.673828 L315.230469,226.917969 C315.441407,227.878911 315.869137,228.608396 316.513672,229.106445 C317.158206,229.604495 318.060541,229.853516 319.220703,229.853516 C320.498053,229.853516 321.458981,229.619143 322.103516,229.150391 C322.537112,228.822264 322.753906,228.382815 322.753906,227.832031 C322.753906,227.457029 322.63672,227.146486 322.402344,226.900391 C322.156249,226.666014 321.605473,226.44922 320.75,226.25 C316.765605,225.371089 314.24024,224.568363 313.173828,223.841797 C311.697258,222.833979 310.958984,221.433603 310.958984,219.640625 C310.958984,218.023429 311.59765,216.664068 312.875,215.5625 C314.15235,214.460932 316.132799,213.910156 318.816406,213.910156 C321.371107,213.910156 323.269525,214.326168 324.511719,215.158203 C325.753912,215.990239 326.609373,217.220695 327.078125,218.849609 L322.419922,219.710938 C322.220702,218.984371 321.842776,218.427736 321.286133,218.041016 C320.729489,217.654295 319.935552,217.460938 318.904297,217.460938 C317.603509,217.460938 316.671878,217.642576 316.109375,218.005859 C315.734373,218.263673 315.546875,218.597654 315.546875,219.007812 C315.546875,219.359377 315.710936,219.658202 316.039062,219.904297 C316.484377,220.232424 318.022448,220.69531 320.65332,221.292969 C323.284193,221.890628 325.121089,222.623043 326.164062,223.490234 C327.195318,224.369145 327.710938,225.593742 327.710938,227.164062 C327.710938,228.875009 326.996101,230.345697 325.566406,231.576172 C324.136712,232.806647 322.021498,233.421875 319.220703,233.421875 C316.677722,233.421875 314.665046,232.906255 313.182617,231.875 C311.700188,230.843745 310.730471,229.443368 310.273438,227.673828 L310.273438,227.673828 Z M341.667969,214.332031 L346.220703,214.332031 L346.220703,216.880859 C347.849618,214.900381 349.789051,213.910156 352.039062,213.910156 C353.234381,213.910156 354.27148,214.156248 355.150391,214.648438 C356.029301,215.140627 356.749997,215.884761 357.3125,216.880859 C358.132817,215.884761 359.017573,215.140627 359.966797,214.648438 C360.91602,214.156248 361.929682,213.910156 363.007812,213.910156 C364.378913,213.910156 365.539058,214.188474 366.488281,214.745117 C367.437505,215.301761 368.146482,216.119135 368.615234,217.197266 C368.95508,217.994145 369.125,219.283194 369.125,221.064453 L369.125,233 L364.185547,233 L364.185547,222.330078 C364.185547,220.478506 364.015627,219.283206 363.675781,218.744141 C363.218748,218.041012 362.51563,217.689453 361.566406,217.689453 C360.874997,217.689453 360.224612,217.900389 359.615234,218.322266 C359.005856,218.744143 358.566408,219.362301 358.296875,220.176758 C358.027342,220.991215 357.892578,222.277335 357.892578,224.035156 L357.892578,233 L352.953125,233 L352.953125,222.769531 C352.953125,220.953116 352.865235,219.781253 352.689453,219.253906 C352.513671,218.72656 352.241213,218.333986 351.87207,218.076172 C351.502928,217.818358 351.001956,217.689453 350.369141,217.689453 C349.607418,217.689453 348.921878,217.894529 348.3125,218.304688 C347.703122,218.714846 347.266603,219.306637 347.00293,220.080078 C346.739256,220.853519 346.607422,222.13671 346.607422,223.929688 L346.607422,233 L341.667969,233 L341.667969,214.332031 Z M377.738281,220.027344 L373.255859,219.21875 C373.759768,217.414053 374.626947,216.078129 375.857422,215.210938 C377.087897,214.343746 378.916003,213.910156 381.341797,213.910156 C383.544933,213.910156 385.185541,214.170896 386.263672,214.692383 C387.341802,215.21387 388.100584,215.875973 388.540039,216.678711 C388.979494,217.481449 389.199219,218.955067 389.199219,221.099609 L389.146484,226.865234 C389.146484,228.505868 389.225585,229.715816 389.383789,230.495117 C389.541993,231.274418 389.837888,232.109371 390.271484,233 L385.384766,233 C385.255859,232.671873 385.097657,232.18555 384.910156,231.541016 C384.828125,231.248045 384.769531,231.054688 384.734375,230.960938 C383.890621,231.781254 382.988286,232.396482 382.027344,232.806641 C381.066401,233.216799 380.041021,233.421875 378.951172,233.421875 C377.029287,233.421875 375.514654,232.900396 374.407227,231.857422 C373.299799,230.814448 372.746094,229.496102 372.746094,227.902344 C372.746094,226.847651 372.998044,225.907231 373.501953,225.081055 C374.005862,224.254879 374.71191,223.622073 375.620117,223.182617 C376.528325,222.743162 377.837882,222.359377 379.548828,222.03125 C381.857433,221.597654 383.457027,221.193361 384.347656,220.818359 L384.347656,220.326172 C384.347656,219.376948 384.113284,218.700197 383.644531,218.295898 C383.175779,217.8916 382.291022,217.689453 380.990234,217.689453 C380.111324,217.689453 379.425784,217.862303 378.933594,218.208008 C378.441404,218.553713 378.04297,219.160152 377.738281,220.027344 L377.738281,220.027344 Z M384.347656,224.035156 C383.714841,224.246095 382.712897,224.498045 381.341797,224.791016 C379.970696,225.083986 379.074221,225.371092 378.652344,225.652344 C378.007809,226.109377 377.685547,226.68945 377.685547,227.392578 C377.685547,228.083988 377.943357,228.681638 378.458984,229.185547 C378.974612,229.689456 379.630855,229.941406 380.427734,229.941406 C381.318364,229.941406 382.167965,229.64844 382.976562,229.0625 C383.574222,228.617185 383.966796,228.072269 384.154297,227.427734 C384.283204,227.005857 384.347656,226.203131 384.347656,225.019531 L384.347656,224.035156 Z M411.189453,233 L406.601562,233 L406.601562,230.257812 C405.83984,231.324224 404.940435,232.118161 403.90332,232.639648 C402.866206,233.161135 401.820318,233.421875 400.765625,233.421875 C398.621083,233.421875 396.784187,232.557626 395.254883,230.829102 C393.725578,229.100577 392.960938,226.689469 392.960938,223.595703 C392.960938,220.431625 393.705071,218.026375 395.193359,216.379883 C396.681648,214.73339 398.562489,213.910156 400.835938,213.910156 C402.921885,213.910156 404.726555,214.777335 406.25,216.511719 L406.25,207.230469 L411.189453,207.230469 L411.189453,233 Z M398.005859,223.261719 C398.005859,225.253916 398.281247,226.695308 398.832031,227.585938 C399.62891,228.875006 400.74218,229.519531 402.171875,229.519531 C403.308599,229.519531 404.275387,229.036138 405.072266,228.069336 C405.869145,227.102534 406.267578,225.658213 406.267578,223.736328 C406.267578,221.591786 405.880863,220.047856 405.107422,219.104492 C404.333981,218.161128 403.343756,217.689453 402.136719,217.689453 C400.964838,217.689453 399.983402,218.155269 399.192383,219.086914 C398.401363,220.018559 398.005859,221.410147 398.005859,223.261719 L398.005859,223.261719 Z M426.869141,227.058594 L431.791016,227.884766 C431.1582,229.689462 430.159187,231.063472 428.793945,232.006836 C427.428704,232.9502 425.720713,233.421875 423.669922,233.421875 C420.423812,233.421875 418.021492,232.361339 416.462891,230.240234 C415.232416,228.541007 414.617188,226.396497 414.617188,223.806641 C414.617188,220.712875 415.425773,218.290048 417.042969,216.538086 C418.660164,214.786124 420.705066,213.910156 423.177734,213.910156 C425.955092,213.910156 428.146476,214.827139 429.751953,216.661133 C431.35743,218.495126 432.125,221.304669 432.054688,225.089844 L419.679688,225.089844 C419.714844,226.554695 420.113277,227.694332 420.875,228.508789 C421.636723,229.323246 422.585932,229.730469 423.722656,229.730469 C424.496098,229.730469 425.146482,229.519533 425.673828,229.097656 C426.201175,228.675779 426.599608,227.996098 426.869141,227.058594 L426.869141,227.058594 Z M427.150391,222.066406 C427.115234,220.636712 426.746097,219.549808 426.042969,218.805664 C425.33984,218.06152 424.48438,217.689453 423.476563,217.689453 C422.398432,217.689453 421.507816,218.082027 420.804688,218.867188 C420.101559,219.652348 419.755859,220.718743 419.767578,222.066406 L427.150391,222.066406 Z M456.892578,227.058594 L461.814453,227.884766 C461.181637,229.689462 460.182624,231.063472 458.817383,232.006836 C457.452142,232.9502 455.744151,233.421875 453.693359,233.421875 C450.447249,233.421875 448.04493,232.361339 446.486328,230.240234 C445.255853,228.541007 444.640625,226.396497 444.640625,223.806641 C444.640625,220.712875 445.449211,218.290048 447.066406,216.538086 C448.683602,214.786124 450.728503,213.910156 453.201172,213.910156 C455.97853,213.910156 458.169914,214.827139 459.775391,216.661133 C461.380867,218.495126 462.148438,221.304669 462.078125,225.089844 L449.703125,225.089844 C449.738281,226.554695 450.136715,227.694332 450.898438,228.508789 C451.66016,229.323246 452.609369,229.730469 453.746094,229.730469 C454.519535,229.730469 455.169919,229.519533 455.697266,229.097656 C456.224612,228.675779 456.623046,227.996098 456.892578,227.058594 L456.892578,227.058594 Z M457.173828,222.066406 C457.138672,220.636712 456.769535,219.549808 456.066406,218.805664 C455.363278,218.06152 454.507818,217.689453 453.5,217.689453 C452.42187,217.689453 451.531254,218.082027 450.828125,218.867188 C450.124996,219.652348 449.779297,220.718743 449.791016,222.066406 L457.173828,222.066406 Z M469.794922,220.027344 L465.3125,219.21875 C465.816409,217.414053 466.683588,216.078129 467.914062,215.210938 C469.144537,214.343746 470.972644,213.910156 473.398438,213.910156 C475.601574,213.910156 477.242182,214.170896 478.320312,214.692383 C479.398443,215.21387 480.157224,215.875973 480.59668,216.678711 C481.036135,217.481449 481.255859,218.955067 481.255859,221.099609 L481.203125,226.865234 C481.203125,228.505868 481.282226,229.715816 481.44043,230.495117 C481.598634,231.274418 481.894529,232.109371 482.328125,233 L477.441406,233 C477.312499,232.671873 477.154298,232.18555 476.966797,231.541016 C476.884765,231.248045 476.826172,231.054688 476.791016,230.960938 C475.947261,231.781254 475.044927,232.396482 474.083984,232.806641 C473.123042,233.216799 472.097662,233.421875 471.007812,233.421875 C469.085928,233.421875 467.571295,232.900396 466.463867,231.857422 C465.35644,230.814448 464.802734,229.496102 464.802734,227.902344 C464.802734,226.847651 465.054685,225.907231 465.558594,225.081055 C466.062503,224.254879 466.76855,223.622073 467.676758,223.182617 C468.584965,222.743162 469.894523,222.359377 471.605469,222.03125 C473.914074,221.597654 475.513667,221.193361 476.404297,220.818359 L476.404297,220.326172 C476.404297,219.376948 476.169924,218.700197 475.701172,218.295898 C475.23242,217.8916 474.347663,217.689453 473.046875,217.689453 C472.167964,217.689453 471.482424,217.862303 470.990234,218.208008 C470.498044,218.553713 470.099611,219.160152 469.794922,220.027344 L469.794922,220.027344 Z M476.404297,224.035156 C475.771481,224.246095 474.769538,224.498045 473.398438,224.791016 C472.027337,225.083986 471.130861,225.371092 470.708984,225.652344 C470.06445,226.109377 469.742188,226.68945 469.742188,227.392578 C469.742188,228.083988 469.999997,228.681638 470.515625,229.185547 C471.031253,229.689456 471.687496,229.941406 472.484375,229.941406 C473.375004,229.941406 474.224605,229.64844 475.033203,229.0625 C475.630862,228.617185 476.023437,228.072269 476.210938,227.427734 C476.339844,227.005857 476.404297,226.203131 476.404297,225.019531 L476.404297,224.035156 Z M484.384766,227.673828 L489.341797,226.917969 C489.552735,227.878911 489.980466,228.608396 490.625,229.106445 C491.269534,229.604495 492.171869,229.853516 493.332031,229.853516 C494.609381,229.853516 495.570309,229.619143 496.214844,229.150391 C496.64844,228.822264 496.865234,228.382815 496.865234,227.832031 C496.865234,227.457029 496.748048,227.146486 496.513672,226.900391 C496.267577,226.666014 495.716801,226.44922 494.861328,226.25 C490.876933,225.371089 488.351568,224.568363 487.285156,223.841797 C485.808586,222.833979 485.070312,221.433603 485.070312,219.640625 C485.070312,218.023429 485.708978,216.664068 486.986328,215.5625 C488.263678,214.460932 490.244127,213.910156 492.927734,213.910156 C495.482435,213.910156 497.380853,214.326168 498.623047,215.158203 C499.865241,215.990239 500.720701,217.220695 501.189453,218.849609 L496.53125,219.710938 C496.33203,218.984371 495.954104,218.427736 495.397461,218.041016 C494.840818,217.654295 494.04688,217.460938 493.015625,217.460938 C491.714837,217.460938 490.783206,217.642576 490.220703,218.005859 C489.845701,218.263673 489.658203,218.597654 489.658203,219.007812 C489.658203,219.359377 489.822264,219.658202 490.150391,219.904297 C490.595705,220.232424 492.133776,220.69531 494.764648,221.292969 C497.395521,221.890628 499.232417,222.623043 500.275391,223.490234 C501.306646,224.369145 501.822266,225.593742 501.822266,227.164062 C501.822266,228.875009 501.107429,230.345697 499.677734,231.576172 C498.24804,232.806647 496.132827,233.421875 493.332031,233.421875 C490.78905,233.421875 488.776375,232.906255 487.293945,231.875 C485.811516,230.843745 484.841799,229.443368 484.384766,227.673828 L484.384766,227.673828 Z M503.808594,214.332031 L509.064453,214.332031 L513.529297,227.585938 L517.888672,214.332031 L523.003906,214.332031 L516.412109,232.296875 L515.234375,235.548828 C514.800779,236.638677 514.387697,237.4707 513.995117,238.044922 C513.602537,238.619143 513.15137,239.084959 512.641602,239.442383 C512.131833,239.799806 511.504887,240.078124 510.760742,240.277344 C510.016598,240.476563 509.175786,240.576172 508.238281,240.576172 C507.289058,240.576172 506.357426,240.476563 505.443359,240.277344 L505.003906,236.410156 C505.777348,236.562501 506.474606,236.638672 507.095703,236.638672 C508.244146,236.638672 509.093747,236.301761 509.644531,235.62793 C510.195315,234.954098 510.617186,234.095708 510.910156,233.052734 L503.808594,214.332031 Z" id="Taxi-booking’s-made" fill="#F7B926"></path>
            </g>
        </g>
    </g>
</svg>