<?xml version="1.0" encoding="UTF-8" standalone="no"?>
<svg width="100px" height="100px" viewBox="0 0 100 100" version="1.1" xmlns="http://www.w3.org/2000/svg" xmlns:xlink="http://www.w3.org/1999/xlink">
    <!-- Generator: Sketch 39.1 (31720) - http://www.bohemiancoding.com/sketch -->
    <title>ic-1</title>
    <desc>Created with Sketch.</desc>
    <defs></defs>
    <g id="Page-1" stroke="none" stroke-width="1" fill="none" fill-rule="evenodd">
        <g id="ic-1">
            <g id="Layer_1" transform="translate(10.000000, 12.000000)">
                <g id="Group" transform="translate(0.000000, 21.527897)" fill="#750C41">
                    <rect id="Rectangle-path" x="20.4114286" y="38.7029185" width="13.0612245" height="15.6566524"></rect>
                    <rect id="Rectangle-path" x="45.2277551" y="38.7029185" width="11.755102" height="15.6566524"></rect>
                    <path d="M31.6440816,11.564721 C31.1216327,16.9140773 23.9379592,20.436824 15.84,19.5235193 C7.74204082,18.6102146 -0.617142857,11.0428326 0.0359183673,5.69347639 C0.558367347,0.344120172 9.83183673,-0.569184549 18.0604082,0.344120172 C26.1583673,1.25742489 32.2971429,6.34583691 31.6440816,11.564721 L31.6440816,11.564721 Z" id="Shape"></path>
                </g>
                <path d="M74.6155102,49.0102146 C74.6155102,65.0582833 59.4644898,69.3638627 40.7869388,69.3638627 C22.1093878,69.3638627 6.95836735,65.0582833 6.95836735,49.0102146 C6.95836735,32.8316738 22.1093878,19.7844635 40.7869388,19.7844635 C59.4644898,19.7844635 74.6155102,32.8316738 74.6155102,49.0102146 L74.6155102,49.0102146 Z" id="Shape" fill="#EF378B"></path>
                <path d="M74.6155102,50.0539914 C74.6155102,65.3192275 59.4644898,69.3638627 40.7869388,69.3638627 C22.1093878,69.3638627 6.95836735,65.3192275 6.95836735,50.0539914 C6.95836735,34.7887554 22.1093878,22.3939056 40.7869388,22.3939056 C59.4644898,22.3939056 74.6155102,34.7887554 74.6155102,50.0539914 L74.6155102,50.0539914 Z" id="Shape" fill="#D61E69"></path>
                <path d="M74.6155102,49.0102146 C75.3991837,65.3192275 59.4644898,69.3638627 40.7869388,69.3638627 C22.1093878,69.3638627 6.95836735,65.0582833 6.95836735,49.0102146" id="Shape" fill="#C61867"></path>
                <rect id="Rectangle-path" fill="#EF378B" x="51.7583673" y="60.2308155" width="11.755102" height="15.6566524"></rect>
                <g id="Group" transform="translate(7.020408, 18.429185)" fill="#D61E69">
                    <polyline id="Shape" points="44.7379592 41.8016309 56.4930612 41.8016309 56.4930612 57.4582833"></polyline>
                    <ellipse id="Oval" cx="16.6563265" cy="38.2788841" rx="16.5877551" ry="10.6987124"></ellipse>
                    <path d="M35.595102,15.0548498 C34.2889796,20.7956223 26.0604082,23.9269528 17.1787755,22.1003433 C8.29714286,20.2737339 -0.0620408163,10.7492704 1.11346939,5.00849785 C2.41959184,-0.732274678 12.6073469,-0.732274678 21.6195918,1.22480687 C30.6318367,3.18188841 36.7706122,9.31407725 35.595102,15.0548498 L35.595102,15.0548498 Z" id="Shape"></path>
                </g>
                <path d="M8.13387755,23.4376824 C9.44,17.6969099 19.6277551,17.6969099 28.64,19.6539914 C37.6522449,21.611073 43.7910204,27.7432618 42.6155102,33.4840343" id="Shape" fill="#EF378B"></path>
                <ellipse id="Oval" fill="#D61E69" cx="7.08897959" cy="51.7501288" rx="4.57142857" ry="8.4806867"></ellipse>
                <ellipse id="Oval" fill="#EF599D" cx="5.26040816" cy="51.7501288" rx="2.74285714" ry="8.4806867"></ellipse>
                <ellipse id="Oval" fill="#C61867" cx="4.86857143" cy="51.3587124" rx="0.914285714" ry="3.91416309"></ellipse>
                <ellipse id="Oval" fill="#63113A" cx="16.2318367" cy="40.66" rx="1.30612245" ry="1.30472103"></ellipse>
                <ellipse id="Oval" fill="#841E56" cx="15.9706122" cy="40.1381116" rx="0.653061224" ry="0.652360515"></ellipse>
                <ellipse id="Oval" fill="#EF378B" cx="27.4644898" cy="50.0539914" rx="7.31428571" ry="2.87038627"></ellipse>
                <path d="M79.4481633,47.1836052 C79.4481633,47.8359657 78.9257143,48.4883262 78.2726531,48.4883262 L67.9542857,48.4883262 C67.3012245,48.4883262 66.7787755,47.8359657 66.7787755,47.1836052 L66.7787755,47.1836052 C66.7787755,46.5312446 67.3012245,45.8788841 67.9542857,45.8788841 L78.2726531,45.8788841 C78.9257143,45.8788841 79.4481633,46.5312446 79.4481633,47.1836052 L79.4481633,47.1836052 L79.4481633,47.1836052 Z" id="Shape" fill="#D61E69"></path>
                <path d="M55.8073469,27.0909013 C55.8073469,30.6136481 50.8440816,33.4840343 44.5746939,33.4840343 C38.4359184,33.4840343 33.3420408,30.6136481 33.3420408,27.0909013 C33.3420408,23.5681545 38.3053061,20.6977682 44.5746939,20.6977682 C50.7134694,20.6977682 55.8073469,23.5681545 55.8073469,27.0909013 L55.8073469,27.0909013 Z" id="Shape" fill="#EF378B"></path>
                <path d="M52.1502041,24.3509871 C52.1502041,24.7424034 51.8889796,25.0033476 51.6277551,25.0033476 L38.5665306,25.0033476 C38.3053061,25.0033476 38.0440816,24.7424034 38.0440816,24.3509871 L38.0440816,24.3509871 C38.0440816,23.9595708 38.3053061,23.6986266 38.5665306,23.6986266 L51.6277551,23.6986266 C51.8889796,23.6986266 52.1502041,23.9595708 52.1502041,24.3509871 L52.1502041,24.3509871 L52.1502041,24.3509871 Z" id="Shape" fill="#D61E69"></path>
                <path d="M52.1502041,25.6557082 C52.1502041,26.0471245 51.8889796,26.3080687 51.6277551,26.3080687 L38.5665306,26.3080687 C38.3053061,26.3080687 38.0440816,26.0471245 38.0440816,25.6557082 L38.0440816,25.6557082 C38.0440816,25.2642918 38.3053061,25.0033476 38.5665306,25.0033476 L51.6277551,25.0033476 C51.8889796,25.0033476 52.1502041,25.2642918 52.1502041,25.6557082 L52.1502041,25.6557082 L52.1502041,25.6557082 Z" id="Shape" fill="#63113A"></path>
                <rect id="Rectangle-path" fill="#EF378B" x="26.9420408" y="60.2308155" width="11.755102" height="15.6566524"></rect>
                <polyline id="Shape" fill="#D61E69" points="26.9420408 60.2308155 38.6971429 60.2308155 38.6971429 75.8874678"></polyline>
                <ellipse id="Oval" fill="#B5750F" cx="44.4440816" cy="17.3054936" rx="7.31428571" ry="7.30643777"></ellipse>
                <ellipse id="Oval" fill="#DD981D" cx="44.4440816" cy="16.3921888" rx="7.31428571" ry="7.30643777"></ellipse>
                <path d="M44.4440816,9.08575107 C48.4930612,9.08575107 51.7583673,12.3475536 51.7583673,16.3921888 C51.7583673,20.436824 48.4930612,23.6986266 44.4440816,23.6986266" id="Shape" fill="#CE8106"></path>
                <ellipse id="Oval" fill="#EFB65B" cx="44.4440816" cy="16.3921888" rx="4.70204082" ry="4.69699571"></ellipse>
                <path d="M47.84,13.1303863 C49.6685714,14.9569957 49.6685714,17.9578541 47.84,19.7844635 C46.0114286,21.611073 43.0073469,21.611073 41.1787755,19.7844635" id="Shape" fill="#E2A750"></path>
                <ellipse id="Oval" fill="#B5750F" cx="59.2032653" cy="8.43339056" rx="7.31428571" ry="7.30643777"></ellipse>
                <ellipse id="Oval" fill="#DD981D" cx="58.5502041" cy="7.78103004" rx="7.31428571" ry="7.30643777"></ellipse>
                <path d="M53.3257143,2.56214592 C56.1991837,-0.308240343 60.9012245,-0.308240343 63.7746939,2.56214592 C66.6481633,5.43253219 66.6481633,10.1295279 63.7746939,12.9999142" id="Shape" fill="#CE8106"></path>
                <ellipse id="Oval" fill="#EFB65B" cx="58.5502041" cy="7.78103004" rx="4.70204082" ry="4.69699571"></ellipse>
                <path d="M58.5502041,3.08403433 C61.162449,3.08403433 63.2522449,5.17158798 63.2522449,7.78103004 C63.2522449,10.3904721 61.162449,12.4780258 58.5502041,12.4780258" id="Shape" fill="#E2A750"></path>
                <ellipse id="Oval" fill="#B5750F" cx="75.0073469" cy="5.04111588" rx="4.96326531" ry="4.95793991"></ellipse>
                <ellipse id="Oval" fill="#DD981D" cx="74.3542857" cy="5.04111588" rx="4.96326531" ry="4.95793991"></ellipse>
                <path d="M69.3910204,5.04111588 C69.3910204,2.30120172 71.6114286,0.0831759657 74.3542857,0.0831759657 C77.0971429,0.0831759657 79.317551,2.30120172 79.317551,5.04111588" id="Shape" fill="#CE8106"></path>
                <ellipse id="Oval" fill="#EFB65B" cx="74.3542857" cy="5.04111588" rx="3.26530612" ry="3.26180258"></ellipse>
                <path d="M72.1338776,2.69261803 C73.44,1.387897 75.3991837,1.387897 76.7053061,2.69261803 C78.0114286,3.99733906 78.0114286,5.9544206 76.7053061,7.25914163" id="Shape" fill="#E2A750"></path>
            </g>
        </g>
    </g>
</svg>