<?xml version="1.0" encoding="UTF-8" standalone="no"?>
<svg width="100px" height="100px" viewBox="0 0 100 100" version="1.1" xmlns="http://www.w3.org/2000/svg" xmlns:xlink="http://www.w3.org/1999/xlink">
    <!-- Generator: Sketch 39.1 (31720) - http://www.bohemiancoding.com/sketch -->
    <title>ic-2</title>
    <desc>Created with Sketch.</desc>
    <defs></defs>
    <g id="Page-1" stroke="none" stroke-width="1" fill="none" fill-rule="evenodd">
        <g id="ic-2">
            <g id="scales" transform="translate(10.000000, 10.000000)">
                <g id="Layer_1">
                    <path d="M70.9859063,1.06536585 C71.2465988,1.84585366 70.7252138,2.62634146 69.9431365,2.75642276 L10.6356008,17.4556098 C9.85352342,17.5856911 9.07144603,17.1954472 8.9410998,16.4149593 L8.9410998,16.4149593 C8.68040733,15.6344715 9.20179226,14.8539837 9.98386965,14.7239024 L69.2914053,0.0247154472 C70.0734827,-0.105365854 70.8555601,0.284878049 70.9859063,1.06536585 L70.9859063,1.06536585 L70.9859063,1.06536585 Z" id="Shape" fill="#24966A"></path>
                    <ellipse id="Oval" fill="#19AACC" cx="39.9635031" cy="68.4474797" rx="11.4704684" ry="11.4471545"></ellipse>
                    <path d="M51.4339715,68.4474797 C51.4339715,74.8214634 46.2201222,79.8946341 39.9635031,79.8946341 C33.7068839,79.8946341 28.4930346,74.6913821 28.4930346,68.4474797" id="Shape" fill="#1589AD"></path>
                    <path d="M42.5704277,67.0165854 C42.5704277,68.4474797 41.3973116,69.878374 39.9635031,69.878374 L39.9635031,69.878374 C38.5296945,69.878374 37.3565784,68.4474797 37.3565784,67.0165854 L37.3565784,4.57756098 C37.3565784,3.14666667 38.3993483,1.84585366 39.8331568,1.84585366 L39.8331568,1.84585366 C41.2669654,1.84585366 42.5704277,3.01658537 42.5704277,4.44747967 L42.5704277,67.0165854 L42.5704277,67.0165854 Z" id="Shape" fill="#F4AD31"></path>
                    <path d="M39.8331568,1.97593496 L39.8331568,1.97593496 C41.3973116,1.97593496 42.5704277,3.27674797 42.5704277,4.83772358 L42.5704277,67.0165854 C42.5704277,68.577561 41.3973116,69.878374 39.7028106,69.878374 L39.7028106,69.878374" id="Shape" fill="#E28413"></path>
                    <path d="M0.0775560081,39.9596748 C0.20790224,46.4637398 5.55209776,51.7970732 12.1997556,51.7970732 C18.8474134,51.7970732 24.191609,46.4637398 24.3219552,39.9596748 L0.0775560081,39.9596748 L0.0775560081,39.9596748 L0.0775560081,39.9596748 Z" id="Shape" fill="#24966A"></path>
                    <path d="M12.3301018,51.7970732 C18.9777597,51.7970732 24.191609,46.4637398 24.3219552,39.9596748 L9.98386965,39.9596748" id="Shape" fill="#007763"></path>
                    <g id="Group" transform="translate(3.421589, 29.430894)" fill="#E28413">
                        <rect id="Rectangle-path" x="0.0449694501" y="7.92715447" width="7.82077393" height="1.30081301"></rect>
                        <rect id="Rectangle-path" x="0.0449694501" y="5.32552846" width="7.82077393" height="1.30081301"></rect>
                        <rect id="Rectangle-path" x="0.0449694501" y="2.72390244" width="7.82077393" height="1.30081301"></rect>
                        <rect id="Rectangle-path" x="0.0449694501" y="0.122276423" width="7.82077393" height="1.30081301"></rect>
                        <rect id="Rectangle-path" x="9.1692057" y="7.92715447" width="7.82077393" height="1.30081301"></rect>
                        <rect id="Rectangle-path" x="9.1692057" y="5.32552846" width="7.82077393" height="1.30081301"></rect>
                        <rect id="Rectangle-path" x="9.1692057" y="2.72390244" width="7.82077393" height="1.30081301"></rect>
                    </g>
                    <path d="M55.6050509,26.9515447 C55.7353971,33.4556098 61.0795927,38.7889431 67.7272505,38.7889431 C74.3749084,38.7889431 79.7191039,33.4556098 79.8494501,26.9515447 L55.6050509,26.9515447 L55.6050509,26.9515447 Z" id="Shape" fill="#24966A"></path>
                    <path d="M67.5969043,38.7889431 C74.2445621,38.7889431 79.8494501,33.4556098 79.9797963,26.9515447 L64.7292872,26.9515447" id="Shape" fill="#007763"></path>
                    <g id="Group" transform="translate(59.470468, 21.626016)" fill="#E28413">
                        <rect id="Rectangle-path" x="0.0449694501" y="2.72390244" width="7.82077393" height="1.30081301"></rect>
                        <rect id="Rectangle-path" x="9.1692057" y="2.72390244" width="7.82077393" height="1.30081301"></rect>
                        <rect id="Rectangle-path" x="9.1692057" y="0.122276423" width="7.82077393" height="1.30081301"></rect>
                    </g>
                </g>
            </g>
        </g>
    </g>
</svg>