<?xml version="1.0" encoding="UTF-8" standalone="no"?>
<svg width="100px" height="100px" viewBox="0 0 100 100" version="1.1" xmlns="http://www.w3.org/2000/svg" xmlns:xlink="http://www.w3.org/1999/xlink">
    <!-- Generator: Sketch 39.1 (31720) - http://www.bohemiancoding.com/sketch -->
    <title>ic-3</title>
    <desc>Created with Sketch.</desc>
    <defs></defs>
    <g id="Page-1" stroke="none" stroke-width="1" fill="none" fill-rule="evenodd">
        <g id="ic-3">
            <g id="id-card" transform="translate(10.000000, 12.000000)">
                <g id="Layer_1">
                    <path d="M75.6879837,22.5985837 L60.2207739,22.5985837 C59.5868024,16.2533991 54.1352342,11.177382 47.5426477,11.177382 L33.4699796,11.177382 C26.8773931,11.177382 21.4258248,16.2535622 20.7918534,22.5985837 L4.05702648,22.5985837 C1.77498982,22.5985837 0,24.2482403 0,26.5326438 L0,71.3294249 C0,73.6136652 1.64822811,75.8979056 4.05702648,75.8979056 L75.8147454,75.8979056 C78.0967821,75.8979056 79.8717719,73.6136652 79.8717719,71.3294249 L79.8717719,26.5326438 C79.8717719,24.2484034 78.0967821,22.5985837 75.6879837,22.5985837 L75.6879837,22.5985837 Z M50.7121792,26.1519914 C50.7121792,29.8321202 47.7961711,32.7509442 44.1195927,32.7509442 L37.0199593,32.7509442 C33.3433809,32.7509442 30.4273727,29.8321202 30.4273727,26.1519914 L30.4273727,24.1215193 C30.4273727,20.4413906 33.3433809,17.5225665 37.0199593,17.5225665 L44.1195927,17.5225665 C47.7961711,17.5225665 50.7121792,20.4413906 50.7121792,24.1215193 L50.7121792,26.1519914 L50.7121792,26.1519914 Z" id="Shape" fill="#3CC676"></path>
                    <path d="M75.6879837,25.1367554 L60.2207739,25.1367554 C59.5868024,18.7915708 54.1352342,13.7155536 47.5426477,13.7155536 L33.4699796,13.7155536 C26.8773931,13.7155536 21.4258248,18.7917339 20.7918534,25.1367554 L4.05702648,25.1367554 C1.77498982,25.1367554 0,27.4209957 0,29.7052361 L0,71.3294249 C0,73.6136652 1.64822811,75.8979056 4.05702648,75.8979056 L75.8147454,75.8979056 C78.0967821,75.8979056 79.8717719,73.6136652 79.8717719,71.3294249 L79.8717719,29.7052361 C79.8717719,27.4209957 78.0967821,25.1367554 75.6879837,25.1367554 L75.6879837,25.1367554 Z M50.7121792,26.1519914 C50.7121792,29.8321202 47.7961711,32.7509442 44.1195927,32.7509442 L37.0199593,32.7509442 C33.3433809,32.7509442 30.4273727,29.8321202 30.4273727,26.1519914 L30.4273727,24.1215193 C30.4273727,20.4413906 33.3433809,17.5225665 37.0199593,17.5225665 L44.1195927,17.5225665 C47.7961711,17.5225665 50.7121792,20.4413906 50.7121792,24.1215193 L50.7121792,26.1519914 L50.7121792,26.1519914 Z" id="Shape" fill="#24966A"></path>
                    <path d="M74.8004888,67.3953648 C74.8004888,69.2989528 73.2791853,70.8217253 71.3774338,70.8217253 L8.49433809,70.8217253 C6.59258656,70.8217253 5.0712831,69.2989528 5.0712831,67.3953648 L5.0712831,37.446309 C5.0712831,35.542721 6.59258656,34.0199485 8.49433809,34.0199485 L71.2506721,34.0199485 C73.1524236,34.0199485 74.6737271,35.542721 74.6737271,37.446309 L74.6737271,67.3953648 L74.8004888,67.3953648 L74.8004888,67.3953648 Z" id="Shape" fill="#D1E6ED"></path>
                    <path d="M48.1766191,22.5985837 L48.1766191,8.25855794 C48.1766191,3.81696137 45.0070876,0.136832618 40.569776,0.136832618 C36.1324644,0.136832618 32.9629328,3.81696137 32.9629328,8.25855794 L32.9629328,22.5985837 L48.1766191,22.5985837 L48.1766191,22.5985837 Z" id="Shape" fill="#C61867"></path>
                    <path d="M48.1766191,22.5985837 L48.1766191,8.25855794 C48.1766191,3.81696137 44.7535642,0.136832618 40.3162525,0.136832618 C35.8789409,0.136832618 32.9629328,3.81696137 32.9629328,8.25855794" id="Shape" fill="#9E085A"></path>
                    <rect id="Rectangle-path" fill="#97B8BF" x="10.1424033" y="37.8269614" width="29.1595927" height="27.9185837"></rect>
                    <path d="M30.4273727,44.4259142 C30.4273727,47.0908069 28.2720978,49.2481631 25.609776,49.2481631 L22.5670061,49.2481631 C19.9046843,49.2481631 18.1296945,46.7101545 18.1296945,44.0450987 L18.1296945,44.0450987 C18.1296945,41.380206 19.9046843,39.0958026 22.5670061,39.0958026 L25.609776,39.0958026 C28.2720978,39.0958026 30.4273727,41.2531588 30.4273727,43.9180515 L30.4273727,44.4259142 L30.4273727,44.4259142 Z" id="Shape" fill="#00233F"></path>
                    <rect id="Rectangle-path" fill="#F9BDA0" x="20.2848065" y="51.7863348" width="7.60684318" height="6.34518455"></rect>
                    <polygon id="Shape" fill="#E28F71" points="27.8916497 58.1315193 24.341833 58.1315193 20.2848065 51.7863348 27.8916497 51.7863348"></polygon>
                    <path d="M30.300611,46.0757339 C30.300611,50.7710987 27.3846029,55.0858112 24.3419959,55.0858112 C21.2992261,55.0858112 18.3833809,50.7710987 18.3833809,46.0757339 C18.3833809,41.3803691 21.299389,40.6189013 24.3419959,40.6189013 C27.3846029,40.6189013 30.300611,41.380206 30.300611,46.0757339 L30.300611,46.0757339 Z" id="Shape" fill="#FCCCB9"></path>
                    <path d="M24.341833,40.6189013 C27.3846029,40.6189013 30.3004481,41.3803691 30.3004481,46.0757339 C30.3004481,50.7710987 27.3844399,55.0858112 24.341833,55.0858112" id="Shape" fill="#F9BDA0"></path>
                    <path d="M26.1168228,40.36497 C26.1168228,40.9995536 25.609776,41.6339742 24.9758045,41.6339742 L23.5812627,41.6339742 C22.9472912,41.6339742 22.4402444,40.9993906 22.4402444,40.36497 L22.4402444,40.36497 C22.4402444,39.7303863 22.9472912,39.0959657 23.5812627,39.0959657 L24.9758045,39.0959657 C25.609613,39.0959657 26.1168228,39.7305494 26.1168228,40.36497 L26.1168228,40.36497 L26.1168228,40.36497 Z" id="Shape" fill="#00233F"></path>
                    <polygon id="Shape" fill="#0C537A" points="20.2848065 56.2279313 10.1424033 59.9080601 10.1424033 68.2837167 23.9615479 68.2837167"></polygon>
                    <polygon id="Shape" fill="#00233F" points="20.0312831 56.2279313 11.5371079 61.1770644 10.1424033 68.2837167 23.9615479 68.2837167"></polygon>
                    <polygon id="Shape" fill="#D6D6D6" points="20.1580448 55.4664635 17.7492464 56.4816996 19.3974745 61.0501803 24.0883096 68.0299485 24.0883096 58.1315193"></polygon>
                    <polygon id="Shape" fill="#FFFFFF" points="20.1580448 55.4664635 24.2150713 58.1315193 19.3974745 60.9232961"></polygon>
                    <polygon id="Shape" fill="#0C537A" points="28.6523829 56.2279313 39.3019959 59.9080601 39.3019959 68.2837167 24.7222811 68.2837167"></polygon>
                    <polygon id="Shape" fill="#00233F" points="28.5256212 56.2279313 37.0199593 61.1770644 39.3019959 68.2837167 24.7222811 68.2837167"></polygon>
                    <polygon id="Shape" fill="#D6D6D6" points="28.7791446 55.4664635 31.187943 56.4816996 29.6666395 61.0501803 25.1025662 68.2837167 25.3560896 58.1315193"></polygon>
                    <polygon id="Shape" fill="#FFFFFF" points="28.7791446 55.4664635 24.4685947 58.1315193 29.6666395 61.0501803"></polygon>
                    <polygon id="Shape" fill="#0C537A" points="23.074053 58.7659399 23.7080244 59.6542918 22.9472912 66.8878283 23.9615479 68.2837167 24.341833 68.2837167 24.341833 58.1315193"></polygon>
                    <polygon id="Shape" fill="#00233F" points="25.609613 58.7659399 25.1025662 59.6542918 25.9900611 66.8878283 24.9758045 68.2837167 24.341833 68.2837167 24.341833 58.1315193"></polygon>
                    <path d="M42.7250509,8.63937339 C41.9643177,9.90837768 40.3162525,10.2891931 39.0484725,9.4008412 C37.7806925,8.63937339 37.4004073,6.98971674 38.2877393,5.72071245 C39.0484725,4.45170815 40.6965377,4.07105579 41.9643177,4.95924464 C43.2320978,5.72054936 43.6125458,7.37020601 42.7250509,8.63937339 L42.7250509,8.63937339 Z" id="Shape" fill="#FFC114"></path>
                    <g id="Group" transform="translate(44.317719, 38.978541)" fill="#97B8BF">
                        <path d="M26.2989817,0.752008584 C26.2989817,1.25954506 25.7919348,1.38659227 25.1579633,1.38659227 L1.19641548,1.38659227 C0.562443992,1.38659227 0.0553971487,1.25970815 0.0553971487,0.752008584 L0.0553971487,0.752008584 C0.0553971487,0.244472103 0.562443992,0.117424893 1.19641548,0.117424893 L25.1579633,0.117424893 C25.7919348,0.117424893 26.2989817,0.244309013 26.2989817,0.752008584 L26.2989817,0.752008584 L26.2989817,0.752008584 Z" id="Shape"></path>
                        <path d="M26.2989817,7.09719313 C26.2989817,7.60472961 25.7919348,7.73177682 25.1579633,7.73177682 L1.19641548,7.73177682 C0.562443992,7.73177682 0.0553971487,7.6048927 0.0553971487,7.09719313 L0.0553971487,7.09719313 C0.0553971487,6.58965665 0.562443992,6.46260944 1.19641548,6.46260944 L25.1579633,6.46260944 C25.7919348,6.46260944 26.2989817,6.58949356 26.2989817,7.09719313 L26.2989817,7.09719313 L26.2989817,7.09719313 Z" id="Shape"></path>
                        <path d="M26.2989817,14.0767983 C26.2989817,14.5843348 25.7919348,15.3458026 25.1579633,15.3458026 L1.19641548,15.3458026 C0.562443992,15.3458026 0.0553971487,14.5843348 0.0553971487,14.0767983 L0.0553971487,14.0767983 C0.0553971487,13.5692618 0.562443992,12.807794 1.19641548,12.807794 L25.1579633,12.807794 C25.7919348,12.807794 26.2989817,13.5692618 26.2989817,14.0767983 L26.2989817,14.0767983 L26.2989817,14.0767983 Z" id="Shape"></path>
                        <path d="M26.2989817,20.4219828 C26.2989817,20.9295193 25.7919348,21.6909871 25.1579633,21.6909871 L1.19641548,21.6909871 C0.562443992,21.6909871 0.0553971487,20.9295193 0.0553971487,20.4219828 L0.0553971487,20.4219828 C0.0553971487,19.9144464 0.562443992,19.1529785 1.19641548,19.1529785 L25.1579633,19.1529785 C25.7919348,19.1529785 26.2989817,19.9142833 26.2989817,20.4219828 L26.2989817,20.4219828 L26.2989817,20.4219828 Z" id="Shape"></path>
                        <path d="M26.2989817,27.401588 C26.2989817,27.9091245 25.7919348,28.0361717 25.1579633,28.0361717 L1.19641548,28.0361717 C0.562443992,28.0361717 0.0553971487,27.9092876 0.0553971487,27.401588 L0.0553971487,27.401588 C0.0553971487,26.8940515 0.562443992,26.7670043 1.19641548,26.7670043 L25.1579633,26.7670043 C25.7919348,26.7671674 26.2989817,26.8940515 26.2989817,27.401588 L26.2989817,27.401588 L26.2989817,27.401588 Z" id="Shape"></path>
                    </g>
                </g>
            </g>
        </g>
    </g>
</svg>