<?xml version="1.0" encoding="UTF-8" standalone="no"?>
<svg width="600px" height="180px" viewBox="0 0 600 180" version="1.1" xmlns="http://www.w3.org/2000/svg" xmlns:xlink="http://www.w3.org/1999/xlink">
    <!-- Generator: Sketch 40.2 (33826) - http://www.bohemiancoding.com/sketch -->
    <title>Group 2</title>
    <desc>Created with Sketch.</desc>
    <defs>
        <rect id="path-1" x="0" y="0" width="600" height="24" rx="12"></rect>
        <mask id="mask-2" maskContentUnits="userSpaceOnUse" maskUnits="objectBoundingBox" x="0" y="0" width="600" height="24" fill="white">
            <use xlink:href="#path-1"></use>
        </mask>
        <rect id="path-3" x="45" y="42" width="510" height="24" rx="12"></rect>
        <mask id="mask-4" maskContentUnits="userSpaceOnUse" maskUnits="objectBoundingBox" x="0" y="0" width="510" height="24" fill="white">
            <use xlink:href="#path-3"></use>
        </mask>
        <rect id="path-5" x="75" y="81" width="450" height="24" rx="12"></rect>
        <mask id="mask-6" maskContentUnits="userSpaceOnUse" maskUnits="objectBoundingBox" x="0" y="0" width="450" height="24" fill="white">
            <use xlink:href="#path-5"></use>
        </mask>
        <path d="M124.932884,29.5973057 C122.208528,13.2511651 133.431302,0 149.995303,0 L453.004697,0 C469.570646,0 480.790985,13.2540884 478.067116,29.5973057 L457.932884,150.402694 C455.208528,166.748835 439.564899,180 422.996241,180 L180.003759,180 C163.43314,180 147.790985,166.745912 145.067116,150.402694 L124.932884,29.5973057 Z" id="path-7"></path>
        <mask id="mask-8" maskContentUnits="userSpaceOnUse" maskUnits="objectBoundingBox" x="0" y="0" width="363" height="180" fill="white">
            <use xlink:href="#path-7"></use>
        </mask>
    </defs>
    <g id="Page-1" stroke="none" stroke-width="1" fill="none" fill-rule="evenodd">
        <g id="Desktop-HD" transform="translate(-420.000000, -194.000000)">
            <g id="Group-3-Copy" transform="translate(420.000000, 194.000000)">
                <g id="Group-2">
                    <g id="Group" transform="translate(0.000000, 39.000000)" stroke="#000000" stroke-width="14" fill="#F7B926">
                        <use id="Rectangle-2" mask="url(#mask-2)" xlink:href="#path-1"></use>
                        <use id="Rectangle-2-Copy" mask="url(#mask-4)" xlink:href="#path-3"></use>
                        <use id="Rectangle-2-Copy-2" mask="url(#mask-6)" xlink:href="#path-5"></use>
                    </g>
                    <use id="Rectangle" stroke="#000000" mask="url(#mask-8)" stroke-width="24" fill="#F7B926" xlink:href="#path-7"></use>
                    <path d="M175.570312,39.640625 L195.445312,39.640625 C198.757829,39.640625 201.300772,40.4609293 203.074219,42.1015625 C204.847665,43.7421957 205.734375,45.7734254 205.734375,48.1953125 C205.734375,50.2265727 205.101569,51.9687427 203.835938,53.421875 C202.992183,54.3906298 201.757821,55.1562472 200.132812,55.71875 C202.601575,56.312503 204.417963,57.332024 205.582031,58.7773438 C206.7461,60.2226635 207.328125,62.0390516 207.328125,64.2265625 C207.328125,66.0078214 206.914067,67.6093679 206.085938,69.03125 C205.257808,70.4531321 204.125007,71.5781209 202.6875,72.40625 C201.796871,72.9218776 200.453134,73.2968738 198.65625,73.53125 C196.265613,73.8437516 194.679691,74 193.898438,74 L175.570312,74 L175.570312,39.640625 Z M186.28125,53.1171875 L190.898438,53.1171875 C192.554696,53.1171875 193.707028,52.8320341 194.355469,52.2617188 C195.003909,51.6914034 195.328125,50.8671929 195.328125,49.7890625 C195.328125,48.7890575 195.003909,48.0078153 194.355469,47.4453125 C193.707028,46.8828097 192.578133,46.6015625 190.96875,46.6015625 L186.28125,46.6015625 L186.28125,53.1171875 Z M186.28125,66.6171875 L191.695312,66.6171875 C193.523447,66.6171875 194.812496,66.292972 195.5625,65.6445312 C196.312504,64.9960905 196.6875,64.1250055 196.6875,63.03125 C196.6875,62.0156199 196.31641,61.1992218 195.574219,60.5820312 C194.832028,59.9648407 193.531259,59.65625 191.671875,59.65625 L186.28125,59.65625 L186.28125,66.6171875 Z M211.546875,56.84375 C211.546875,51.234347 213.109359,46.8672031 216.234375,43.7421875 C219.359391,40.6171719 223.71091,39.0546875 229.289062,39.0546875 C235.007841,39.0546875 239.414047,40.5898284 242.507812,43.6601562 C245.601578,46.7304841 247.148438,51.0312223 247.148438,56.5625 C247.148438,60.5781451 246.472663,63.8710809 245.121094,66.4414062 C243.769524,69.0117316 241.816419,71.0117116 239.261719,72.4414062 C236.707018,73.8711009 233.523457,74.5859375 229.710938,74.5859375 C225.835918,74.5859375 222.628919,73.9687562 220.089844,72.734375 C217.550769,71.4999938 215.492195,69.5468884 213.914062,66.875 C212.33593,64.2031116 211.546875,60.8593951 211.546875,56.84375 L211.546875,56.84375 Z M222.164062,56.890625 C222.164062,60.3593923 222.808587,62.8515549 224.097656,64.3671875 C225.386725,65.8828201 227.140614,66.640625 229.359375,66.640625 C231.640636,66.640625 233.406244,65.8984449 234.65625,64.4140625 C235.906256,62.9296801 236.53125,60.2656442 236.53125,56.421875 C236.53125,53.1874838 235.878913,50.8242262 234.574219,49.3320312 C233.269525,47.8398363 231.500011,47.09375 229.265625,47.09375 C227.124989,47.09375 225.406256,47.8515549 224.109375,49.3671875 C222.812494,50.8828201 222.164062,53.3906075 222.164062,56.890625 L222.164062,56.890625 Z M251.53125,56.84375 C251.53125,51.234347 253.093734,46.8672031 256.21875,43.7421875 C259.343766,40.6171719 263.695285,39.0546875 269.273438,39.0546875 C274.992216,39.0546875 279.398422,40.5898284 282.492188,43.6601562 C285.585953,46.7304841 287.132812,51.0312223 287.132812,56.5625 C287.132812,60.5781451 286.457038,63.8710809 285.105469,66.4414062 C283.753899,69.0117316 281.800794,71.0117116 279.246094,72.4414062 C276.691393,73.8711009 273.507832,74.5859375 269.695312,74.5859375 C265.820293,74.5859375 262.613294,73.9687562 260.074219,72.734375 C257.535144,71.4999938 255.47657,69.5468884 253.898438,66.875 C252.320305,64.2031116 251.53125,60.8593951 251.53125,56.84375 L251.53125,56.84375 Z M262.148438,56.890625 C262.148438,60.3593923 262.792962,62.8515549 264.082031,64.3671875 C265.3711,65.8828201 267.124989,66.640625 269.34375,66.640625 C271.625011,66.640625 273.390619,65.8984449 274.640625,64.4140625 C275.890631,62.9296801 276.515625,60.2656442 276.515625,56.421875 C276.515625,53.1874838 275.863288,50.8242262 274.558594,49.3320312 C273.2539,47.8398363 271.484386,47.09375 269.25,47.09375 C267.109364,47.09375 265.390631,47.8515549 264.09375,49.3671875 C262.796869,50.8828201 262.148438,53.3906075 262.148438,56.890625 L262.148438,56.890625 Z M292.898438,39.640625 L303.515625,39.640625 L303.515625,52.625 L314.648438,39.640625 L328.757812,39.640625 L316.242188,52.6015625 L329.320312,74 L316.242188,74 L309,59.8671875 L303.515625,65.609375 L303.515625,74 L292.898438,74 L292.898438,39.640625 Z M333.257812,39.640625 L343.898438,39.640625 L343.898438,74 L333.257812,74 L333.257812,39.640625 Z M351.585938,39.640625 L361.5,39.640625 L374.4375,58.6484375 L374.4375,39.640625 L384.445312,39.640625 L384.445312,74 L374.4375,74 L361.570312,55.1328125 L361.570312,74 L351.585938,74 L351.585938,39.640625 Z M408.773438,61.5546875 L408.773438,54.40625 L425.179688,54.40625 L425.179688,69.0546875 C422.039047,71.1953232 419.261731,72.6523399 416.847656,73.4257812 C414.433582,74.1992226 411.570329,74.5859375 408.257812,74.5859375 C404.179667,74.5859375 400.855482,73.890632 398.285156,72.5 C395.714831,71.109368 393.722663,69.0390762 392.308594,66.2890625 C390.894524,63.5390488 390.1875,60.3828303 390.1875,56.8203125 C390.1875,53.0702937 390.96093,49.8086076 392.507812,47.0351562 C394.054695,44.2617049 396.320298,42.1562572 399.304688,40.71875 C401.632824,39.6093695 404.765605,39.0546875 408.703125,39.0546875 C412.500019,39.0546875 415.339834,39.3984341 417.222656,40.0859375 C419.105478,40.7734409 420.667963,41.8398365 421.910156,43.2851562 C423.15235,44.730476 424.085934,46.5624889 424.710938,48.78125 L414.46875,50.609375 C414.046873,49.3124935 413.332036,48.3203159 412.324219,47.6328125 C411.316401,46.9453091 410.031258,46.6015625 408.46875,46.6015625 C406.140613,46.6015625 404.285163,47.4101482 402.902344,49.0273438 C401.519524,50.6445393 400.828125,53.2031075 400.828125,56.703125 C400.828125,60.4218936 401.527337,63.078117 402.925781,64.671875 C404.324226,66.265633 406.273425,67.0625 408.773438,67.0625 C409.960943,67.0625 411.093745,66.8906267 412.171875,66.546875 C413.250005,66.2031233 414.484368,65.6171916 415.875,64.7890625 L415.875,61.5546875 L408.773438,61.5546875 Z M190.066406,107.640625 L204.035156,107.640625 L209.425781,128.546875 L214.792969,107.640625 L228.714844,107.640625 L228.714844,142 L220.042969,142 L220.042969,115.796875 L213.316406,142 L205.464844,142 L198.761719,115.796875 L198.761719,142 L190.066406,142 L190.066406,107.640625 Z M232.019531,107.640625 L243.808594,107.640625 L250.746094,119.242188 L257.683594,107.640625 L269.402344,107.640625 L256.042969,127.609375 L256.042969,142 L245.402344,142 L245.402344,127.609375 L232.019531,107.640625 Z M286.417969,107.640625 L318.691406,107.640625 L318.691406,116.125 L307.863281,116.125 L307.863281,142 L297.246094,142 L297.246094,116.125 L286.417969,116.125 L286.417969,107.640625 Z M344.636719,136.328125 L332.542969,136.328125 L330.878906,142 L320.027344,142 L332.941406,107.640625 L344.519531,107.640625 L357.433594,142 L346.324219,142 L344.636719,136.328125 Z M342.410156,128.898438 L338.613281,116.546875 L334.839844,128.898438 L342.410156,128.898438 Z M358.464844,107.640625 L370.160156,107.640625 L376.253906,118.210938 L382.160156,107.640625 L393.738281,107.640625 L383.050781,124.28125 L394.746094,142 L382.816406,142 L376.042969,130.960938 L369.246094,142 L357.386719,142 L369.246094,124.09375 L358.464844,107.640625 Z M398.589844,107.640625 L409.230469,107.640625 L409.230469,142 L398.589844,142 L398.589844,107.640625 Z" id="BOOKING-MY-TAXI" fill="#000000"></path>
                </g>
            </g>
        </g>
    </g>
</svg>