<?xml version="1.0" encoding="UTF-8" standalone="no"?>
<svg width="600px" height="245px" viewBox="0 0 600 245" version="1.1" xmlns="http://www.w3.org/2000/svg" xmlns:xlink="http://www.w3.org/1999/xlink">
    <!-- Generator: Sketch 40.2 (33826) - http://www.bohemiancoding.com/sketch -->
    <title>Group 3 Copy</title>
    <desc>Created with Sketch.</desc>
    <defs>
        <rect id="path-1" x="0" y="0" width="600" height="24" rx="12"></rect>
        <mask id="mask-2" maskContentUnits="userSpaceOnUse" maskUnits="objectBoundingBox" x="0" y="0" width="600" height="24" fill="white">
            <use xlink:href="#path-1"></use>
        </mask>
        <rect id="path-3" x="45" y="42" width="510" height="24" rx="12"></rect>
        <mask id="mask-4" maskContentUnits="userSpaceOnUse" maskUnits="objectBoundingBox" x="0" y="0" width="510" height="24" fill="white">
            <use xlink:href="#path-3"></use>
        </mask>
        <rect id="path-5" x="75" y="81" width="450" height="24" rx="12"></rect>
        <mask id="mask-6" maskContentUnits="userSpaceOnUse" maskUnits="objectBoundingBox" x="0" y="0" width="450" height="24" fill="white">
            <use xlink:href="#path-5"></use>
        </mask>
        <path d="M124.932884,29.5973057 C122.208528,13.2511651 133.431302,0 149.995303,0 L453.004697,0 C469.570646,0 480.790985,13.2540884 478.067116,29.5973057 L457.932884,150.402694 C455.208528,166.748835 439.564899,180 422.996241,180 L180.003759,180 C163.43314,180 147.790985,166.745912 145.067116,150.402694 L124.932884,29.5973057 Z" id="path-7"></path>
        <mask id="mask-8" maskContentUnits="userSpaceOnUse" maskUnits="objectBoundingBox" x="0" y="0" width="363" height="180" fill="white">
            <use xlink:href="#path-7"></use>
        </mask>
    </defs>
    <g id="Page-1" stroke="none" stroke-width="1" fill="none" fill-rule="evenodd">
        <g id="Desktop-HD" transform="translate(-420.000000, -194.000000)">
            <g id="Group-3-Copy" transform="translate(420.000000, 194.000000)">
                <g id="Group-2">
                    <g id="Group" transform="translate(0.000000, 39.000000)" stroke="#000000" stroke-width="14" fill="#F7B926">
                        <use id="Rectangle-2" mask="url(#mask-2)" xlink:href="#path-1"></use>
                        <use id="Rectangle-2-Copy" mask="url(#mask-4)" xlink:href="#path-3"></use>
                        <use id="Rectangle-2-Copy-2" mask="url(#mask-6)" xlink:href="#path-5"></use>
                    </g>
                    <use id="Rectangle" stroke="#000000" mask="url(#mask-8)" stroke-width="24" fill="#F7B926" xlink:href="#path-7"></use>
                    <path d="M175.570312,39.640625 L195.445312,39.640625 C198.757829,39.640625 201.300772,40.4609293 203.074219,42.1015625 C204.847665,43.7421957 205.734375,45.7734254 205.734375,48.1953125 C205.734375,50.2265727 205.101569,51.9687427 203.835938,53.421875 C202.992183,54.3906298 201.757821,55.1562472 200.132812,55.71875 C202.601575,56.312503 204.417963,57.332024 205.582031,58.7773438 C206.7461,60.2226635 207.328125,62.0390516 207.328125,64.2265625 C207.328125,66.0078214 206.914067,67.6093679 206.085938,69.03125 C205.257808,70.4531321 204.125007,71.5781209 202.6875,72.40625 C201.796871,72.9218776 200.453134,73.2968738 198.65625,73.53125 C196.265613,73.8437516 194.679691,74 193.898438,74 L175.570312,74 L175.570312,39.640625 Z M186.28125,53.1171875 L190.898438,53.1171875 C192.554696,53.1171875 193.707028,52.8320341 194.355469,52.2617188 C195.003909,51.6914034 195.328125,50.8671929 195.328125,49.7890625 C195.328125,48.7890575 195.003909,48.0078153 194.355469,47.4453125 C193.707028,46.8828097 192.578133,46.6015625 190.96875,46.6015625 L186.28125,46.6015625 L186.28125,53.1171875 Z M186.28125,66.6171875 L191.695312,66.6171875 C193.523447,66.6171875 194.812496,66.292972 195.5625,65.6445312 C196.312504,64.9960905 196.6875,64.1250055 196.6875,63.03125 C196.6875,62.0156199 196.31641,61.1992218 195.574219,60.5820312 C194.832028,59.9648407 193.531259,59.65625 191.671875,59.65625 L186.28125,59.65625 L186.28125,66.6171875 Z M211.546875,56.84375 C211.546875,51.234347 213.109359,46.8672031 216.234375,43.7421875 C219.359391,40.6171719 223.71091,39.0546875 229.289062,39.0546875 C235.007841,39.0546875 239.414047,40.5898284 242.507812,43.6601562 C245.601578,46.7304841 247.148438,51.0312223 247.148438,56.5625 C247.148438,60.5781451 246.472663,63.8710809 245.121094,66.4414062 C243.769524,69.0117316 241.816419,71.0117116 239.261719,72.4414062 C236.707018,73.8711009 233.523457,74.5859375 229.710938,74.5859375 C225.835918,74.5859375 222.628919,73.9687562 220.089844,72.734375 C217.550769,71.4999938 215.492195,69.5468884 213.914062,66.875 C212.33593,64.2031116 211.546875,60.8593951 211.546875,56.84375 L211.546875,56.84375 Z M222.164062,56.890625 C222.164062,60.3593923 222.808587,62.8515549 224.097656,64.3671875 C225.386725,65.8828201 227.140614,66.640625 229.359375,66.640625 C231.640636,66.640625 233.406244,65.8984449 234.65625,64.4140625 C235.906256,62.9296801 236.53125,60.2656442 236.53125,56.421875 C236.53125,53.1874838 235.878913,50.8242262 234.574219,49.3320312 C233.269525,47.8398363 231.500011,47.09375 229.265625,47.09375 C227.124989,47.09375 225.406256,47.8515549 224.109375,49.3671875 C222.812494,50.8828201 222.164062,53.3906075 222.164062,56.890625 L222.164062,56.890625 Z M251.53125,56.84375 C251.53125,51.234347 253.093734,46.8672031 256.21875,43.7421875 C259.343766,40.6171719 263.695285,39.0546875 269.273438,39.0546875 C274.992216,39.0546875 279.398422,40.5898284 282.492188,43.6601562 C285.585953,46.7304841 287.132812,51.0312223 287.132812,56.5625 C287.132812,60.5781451 286.457038,63.8710809 285.105469,66.4414062 C283.753899,69.0117316 281.800794,71.0117116 279.246094,72.4414062 C276.691393,73.8711009 273.507832,74.5859375 269.695312,74.5859375 C265.820293,74.5859375 262.613294,73.9687562 260.074219,72.734375 C257.535144,71.4999938 255.47657,69.5468884 253.898438,66.875 C252.320305,64.2031116 251.53125,60.8593951 251.53125,56.84375 L251.53125,56.84375 Z M262.148438,56.890625 C262.148438,60.3593923 262.792962,62.8515549 264.082031,64.3671875 C265.3711,65.8828201 267.124989,66.640625 269.34375,66.640625 C271.625011,66.640625 273.390619,65.8984449 274.640625,64.4140625 C275.890631,62.9296801 276.515625,60.2656442 276.515625,56.421875 C276.515625,53.1874838 275.863288,50.8242262 274.558594,49.3320312 C273.2539,47.8398363 271.484386,47.09375 269.25,47.09375 C267.109364,47.09375 265.390631,47.8515549 264.09375,49.3671875 C262.796869,50.8828201 262.148438,53.3906075 262.148438,56.890625 L262.148438,56.890625 Z M292.898438,39.640625 L303.515625,39.640625 L303.515625,52.625 L314.648438,39.640625 L328.757812,39.640625 L316.242188,52.6015625 L329.320312,74 L316.242188,74 L309,59.8671875 L303.515625,65.609375 L303.515625,74 L292.898438,74 L292.898438,39.640625 Z M333.257812,39.640625 L343.898438,39.640625 L343.898438,74 L333.257812,74 L333.257812,39.640625 Z M351.585938,39.640625 L361.5,39.640625 L374.4375,58.6484375 L374.4375,39.640625 L384.445312,39.640625 L384.445312,74 L374.4375,74 L361.570312,55.1328125 L361.570312,74 L351.585938,74 L351.585938,39.640625 Z M408.773438,61.5546875 L408.773438,54.40625 L425.179688,54.40625 L425.179688,69.0546875 C422.039047,71.1953232 419.261731,72.6523399 416.847656,73.4257812 C414.433582,74.1992226 411.570329,74.5859375 408.257812,74.5859375 C404.179667,74.5859375 400.855482,73.890632 398.285156,72.5 C395.714831,71.109368 393.722663,69.0390762 392.308594,66.2890625 C390.894524,63.5390488 390.1875,60.3828303 390.1875,56.8203125 C390.1875,53.0702937 390.96093,49.8086076 392.507812,47.0351562 C394.054695,44.2617049 396.320298,42.1562572 399.304688,40.71875 C401.632824,39.6093695 404.765605,39.0546875 408.703125,39.0546875 C412.500019,39.0546875 415.339834,39.3984341 417.222656,40.0859375 C419.105478,40.7734409 420.667963,41.8398365 421.910156,43.2851562 C423.15235,44.730476 424.085934,46.5624889 424.710938,48.78125 L414.46875,50.609375 C414.046873,49.3124935 413.332036,48.3203159 412.324219,47.6328125 C411.316401,46.9453091 410.031258,46.6015625 408.46875,46.6015625 C406.140613,46.6015625 404.285163,47.4101482 402.902344,49.0273438 C401.519524,50.6445393 400.828125,53.2031075 400.828125,56.703125 C400.828125,60.4218936 401.527337,63.078117 402.925781,64.671875 C404.324226,66.265633 406.273425,67.0625 408.773438,67.0625 C409.960943,67.0625 411.093745,66.8906267 412.171875,66.546875 C413.250005,66.2031233 414.484368,65.6171916 415.875,64.7890625 L415.875,61.5546875 L408.773438,61.5546875 Z M190.066406,107.640625 L204.035156,107.640625 L209.425781,128.546875 L214.792969,107.640625 L228.714844,107.640625 L228.714844,142 L220.042969,142 L220.042969,115.796875 L213.316406,142 L205.464844,142 L198.761719,115.796875 L198.761719,142 L190.066406,142 L190.066406,107.640625 Z M232.019531,107.640625 L243.808594,107.640625 L250.746094,119.242188 L257.683594,107.640625 L269.402344,107.640625 L256.042969,127.609375 L256.042969,142 L245.402344,142 L245.402344,127.609375 L232.019531,107.640625 Z M286.417969,107.640625 L318.691406,107.640625 L318.691406,116.125 L307.863281,116.125 L307.863281,142 L297.246094,142 L297.246094,116.125 L286.417969,116.125 L286.417969,107.640625 Z M344.636719,136.328125 L332.542969,136.328125 L330.878906,142 L320.027344,142 L332.941406,107.640625 L344.519531,107.640625 L357.433594,142 L346.324219,142 L344.636719,136.328125 Z M342.410156,128.898438 L338.613281,116.546875 L334.839844,128.898438 L342.410156,128.898438 Z M358.464844,107.640625 L370.160156,107.640625 L376.253906,118.210938 L382.160156,107.640625 L393.738281,107.640625 L383.050781,124.28125 L394.746094,142 L382.816406,142 L376.042969,130.960938 L369.246094,142 L357.386719,142 L369.246094,124.09375 L358.464844,107.640625 Z M398.589844,107.640625 L409.230469,107.640625 L409.230469,142 L398.589844,142 L398.589844,107.640625 Z" id="BOOKING-MY-TAXI" fill="#000000"></path>
                </g>
                <path d="M19.9401706,235.230364 L19.9401706,207.621508 L10,207.621508 L10,202 L36.6213765,202 L36.6213765,207.621508 L26.7040568,207.621508 L26.7040568,235.230364 L19.9401706,235.230364 Z M45.7389123,218.501845 L39.9119157,217.459146 C40.56698,215.131951 41.6942831,213.409248 43.2938588,212.290986 C44.8934345,211.172723 47.2699113,210.6136 50.4233605,210.6136 C53.2873627,210.6136 55.4200982,210.94983 56.8216312,211.622298 C58.2231642,212.294767 59.2095544,213.148563 59.7808314,214.183711 C60.3521085,215.21886 60.6377427,217.119122 60.6377427,219.884555 L60.5691898,227.319452 C60.5691898,229.435084 60.6720181,230.995339 60.8776778,232.000264 C61.0833376,233.005189 61.4679917,234.081878 62.0316517,235.230364 L55.6790829,235.230364 C55.5115083,234.807237 55.3058516,234.180113 55.0621068,233.348972 C54.9554684,232.971181 54.8792993,232.721842 54.8335971,232.600949 C53.7367452,233.658765 52.5637406,234.452115 51.3145482,234.981023 C50.0653558,235.509931 48.732396,235.774381 47.315629,235.774381 C44.8172441,235.774381 42.8482721,235.101922 41.408654,233.756985 C39.9690359,232.412047 39.2492377,230.712012 39.2492377,228.656827 C39.2492377,227.296778 39.5767649,226.084085 40.2318292,225.018714 C40.8868936,223.953342 41.8047316,223.137325 42.9853707,222.570638 C44.1660099,222.003951 45.86839,221.509051 48.0925619,221.085925 C51.0936705,220.526794 53.1730877,220.00545 54.3308758,219.521877 L54.3308758,218.88719 C54.3308758,217.663146 54.0261993,216.790461 53.4168371,216.269109 C52.807475,215.747757 51.6573212,215.487085 49.9663411,215.487085 C48.8237871,215.487085 47.9326083,215.709978 47.292778,216.155772 C46.6529477,216.601566 46.1349977,217.383583 45.7389123,218.501845 L45.7389123,218.501845 Z M54.3308758,223.670005 C53.5082369,223.942015 52.2057448,224.266911 50.4233605,224.644702 C48.6409762,225.022494 47.4755885,225.392724 46.9271625,225.755403 C46.0892896,226.344758 45.6703594,227.092774 45.6703594,227.999473 C45.6703594,228.891061 46.0055035,229.661743 46.6758019,230.311545 C47.3461003,230.961346 48.1991945,231.286241 49.2351102,231.286241 C50.3928983,231.286241 51.4973507,230.908456 52.5485004,230.152873 C53.3254372,229.57863 53.8357703,228.875949 54.0795152,228.044808 C54.2470898,227.500788 54.3308758,226.465655 54.3308758,224.939378 L54.3308758,223.670005 Z M63.88258,235.230364 L72.6345003,222.831313 L64.2481955,211.157617 L72.0860771,211.157617 L76.3820589,217.776489 L80.9065504,211.157617 L88.4473694,211.157617 L80.2210213,222.559304 L89.2014513,235.230364 L81.3178678,235.230364 L76.3820589,227.772799 L71.4005481,235.230364 L63.88258,235.230364 Z M92.9947119,207.893516 L92.9947119,202 L99.4158336,202 L99.4158336,207.893516 L92.9947119,207.893516 Z M92.9947119,235.230364 L92.9947119,211.157617 L99.4158336,211.157617 L99.4158336,235.230364 L92.9947119,235.230364 Z M118.724901,235.230364 L118.724901,202 L125.146022,202 L125.146022,213.968371 C127.126449,211.731846 129.472458,210.6136 132.18412,210.6136 C135.139527,210.6136 137.584556,211.675178 139.519281,213.798366 C141.454005,215.921553 142.421353,218.970284 142.421353,222.944649 C142.421353,227.05502 141.434963,230.220864 139.462153,232.442277 C137.489343,234.663691 135.093824,235.774381 132.275524,235.774381 C130.889225,235.774381 129.521989,235.430596 128.173775,234.743015 C126.825562,234.055435 125.663982,233.039191 124.689003,231.694254 L124.689003,235.230364 L118.724901,235.230364 Z M125.10032,222.672641 C125.10032,225.166064 125.4964,227.009658 126.288571,228.203479 C127.400657,229.895985 128.878338,230.742225 130.721658,230.742225 C132.138425,230.742225 133.345706,230.141545 134.343536,228.940169 C135.341367,227.738792 135.840275,225.846086 135.840275,223.261993 C135.840275,220.511671 135.337559,218.528296 134.332111,217.311808 C133.326663,216.09532 132.039405,215.487085 130.470298,215.487085 C128.931658,215.487085 127.652017,216.080208 126.631335,217.266473 C125.610654,218.452738 125.10032,220.254776 125.10032,222.672641 L125.10032,222.672641 Z M146.100359,222.85398 C146.100359,220.738348 146.625926,218.69075 147.677076,216.711123 C148.728225,214.731496 150.217332,213.220353 152.14444,212.177649 C154.071548,211.134945 156.223325,210.6136 158.599838,210.6136 C162.271245,210.6136 165.279925,211.79607 167.62597,214.161044 C169.972014,216.526018 171.145019,219.514303 171.145019,223.125988 C171.145019,226.767897 169.960589,229.786405 167.591693,232.181603 C165.222798,234.5768 162.240777,235.774381 158.64554,235.774381 C156.421368,235.774381 154.300058,235.275703 152.281546,234.278334 C150.263033,233.280965 148.728225,231.818934 147.677076,229.892198 C146.625926,227.965462 146.100359,225.619413 146.100359,222.85398 L146.100359,222.85398 Z M152.681437,223.193991 C152.681437,225.581632 153.252706,227.410115 154.39526,228.679494 C155.537814,229.948873 156.946943,230.583553 158.622689,230.583553 C160.298435,230.583553 161.703755,229.948873 162.838692,228.679494 C163.973629,227.410115 164.541089,225.566521 164.541089,223.148656 C164.541089,220.791238 163.973629,218.977866 162.838692,217.708487 C161.703755,216.439108 160.298435,215.804428 158.622689,215.804428 C156.946943,215.804428 155.537814,216.439108 154.39526,217.708487 C153.252706,218.977866 152.681437,220.806349 152.681437,223.193991 L152.681437,223.193991 Z M174.686919,222.85398 C174.686919,220.738348 175.212486,218.69075 176.263635,216.711123 C177.314785,214.731496 178.803891,213.220353 180.730999,212.177649 C182.658107,211.134945 184.809885,210.6136 187.186397,210.6136 C190.857805,210.6136 193.866485,211.79607 196.212529,214.161044 C198.558574,216.526018 199.731578,219.514303 199.731578,223.125988 C199.731578,226.767897 198.547148,229.786405 196.178253,232.181603 C193.809358,234.5768 190.827336,235.774381 187.232099,235.774381 C185.007928,235.774381 182.886617,235.275703 180.868105,234.278334 C178.849593,233.280965 177.314785,231.818934 176.263635,229.892198 C175.212486,227.965462 174.686919,225.619413 174.686919,222.85398 L174.686919,222.85398 Z M181.267997,223.193991 C181.267997,225.581632 181.839266,227.410115 182.98182,228.679494 C184.124374,229.948873 185.533503,230.583553 187.209248,230.583553 C188.884994,230.583553 190.290315,229.948873 191.425252,228.679494 C192.560189,227.410115 193.127649,225.566521 193.127649,223.148656 C193.127649,220.791238 192.560189,218.977866 191.425252,217.708487 C190.290315,216.439108 188.884994,215.804428 187.209248,215.804428 C185.533503,215.804428 184.124374,216.439108 182.98182,217.708487 C181.839266,218.977866 181.267997,220.806349 181.267997,223.193991 L181.267997,223.193991 Z M204.530281,235.230364 L204.530281,202 L210.951403,202 L210.951403,219.635213 L218.469371,211.157617 L226.375806,211.157617 L218.080905,219.952557 L226.969931,235.230364 L220.046088,235.230364 L213.94488,224.418028 L210.951403,227.523458 L210.951403,235.230364 L204.530281,235.230364 Z M230.786042,207.893516 L230.786042,202 L237.207164,202 L237.207164,207.893516 L230.786042,207.893516 Z M230.786042,235.230364 L230.786042,211.157617 L237.207164,211.157617 L237.207164,235.230364 L230.786042,235.230364 Z M265.862277,235.230364 L259.441155,235.230364 L259.441155,222.944649 C259.441155,220.345445 259.30405,218.664298 259.029837,217.90116 C258.755625,217.138021 258.310035,216.544898 257.693056,216.121771 C257.076077,215.698645 256.333428,215.487085 255.465087,215.487085 C254.353001,215.487085 253.355185,215.789313 252.47161,216.39378 C251.588035,216.998246 250.98249,217.799152 250.654958,218.796521 C250.327426,219.79389 250.163662,221.637484 250.163662,224.327359 L250.163662,235.230364 L243.742541,235.230364 L243.742541,211.157617 L249.706643,211.157617 L249.706643,214.693727 C251.824177,211.973629 254.490096,210.6136 257.704481,210.6136 C259.121248,210.6136 260.416124,210.866717 261.589146,211.372957 C262.762168,211.879198 263.649538,212.525211 264.251283,213.311017 C264.853029,214.096823 265.271959,214.988398 265.508087,215.985767 C265.744214,216.983136 265.862277,218.411166 265.862277,220.2699 L265.862277,235.230364 Z M271.780677,236.81708 L279.115837,237.701107 C279.23771,238.54736 279.519536,239.12915 279.961323,239.446494 C280.570685,239.899844 281.530416,240.126516 282.840545,240.126516 C284.516291,240.126516 285.773082,239.877177 286.610955,239.378492 C287.174615,239.046036 287.601162,238.50958 287.890609,237.769109 C288.088651,237.240201 288.187671,236.265514 288.187671,234.845018 L288.187671,231.331576 C286.26818,233.930781 283.846002,235.230364 280.921064,235.230364 C277.660976,235.230364 275.078843,233.862779 273.174586,231.12757 C271.681649,228.966603 270.935191,226.276769 270.935191,223.057986 C270.935191,219.023174 271.913965,215.940443 273.871541,213.8097 C275.829116,211.678956 278.26272,210.6136 281.172424,210.6136 C284.173533,210.6136 286.64903,211.920739 288.598989,214.535055 L288.598989,211.157617 L294.608793,211.157617 L294.608793,232.75962 C294.608793,235.600612 294.372669,237.723767 293.900413,239.129151 C293.428157,240.534535 292.765486,241.63767 291.912379,242.438587 C291.059272,243.239505 289.920543,243.866629 288.496159,244.319979 C287.071775,244.773329 285.270375,245 283.091906,245 C278.978711,245 276.061433,244.301096 274.339985,242.903268 C272.618537,241.50544 271.757826,239.733625 271.757826,237.58777 C271.757826,237.376207 271.765443,237.119313 271.780677,236.81708 L271.780677,236.81708 Z M277.51627,222.695308 C277.51627,225.249178 278.015178,227.119217 279.013008,228.305482 C280.010839,229.491747 281.24097,230.084871 282.703439,230.084871 C284.272547,230.084871 285.59789,229.476636 286.679507,228.260148 C287.761125,227.043659 288.301926,225.241621 288.301926,222.85398 C288.301926,220.360557 287.783976,218.509407 286.74806,217.300474 C285.712145,216.091542 284.402036,215.487085 282.817694,215.487085 C281.279055,215.487085 280.010839,216.080208 279.013008,217.266473 C278.015178,218.452738 277.51627,220.262332 277.51627,222.695308 L277.51627,222.695308 Z M300.801405,202.090669 L307.222527,202.090669 L307.222527,206.646811 C307.222527,208.490433 307.062572,209.944908 306.742656,211.010279 C306.422741,212.075651 305.817197,213.031449 304.926005,213.877702 C304.034812,214.723954 302.903701,215.388857 301.532636,215.87243 L300.275833,213.243015 C301.570727,212.819889 302.492374,212.238099 303.0408,211.497628 C303.589226,210.757157 303.878668,209.744691 303.909137,208.4602 L300.801405,208.4602 L300.801405,202.090669 Z M311.701316,228.362151 L318.145289,227.387454 C318.419502,228.62661 318.975537,229.567296 319.81341,230.209541 C320.651282,230.851787 321.824287,231.172905 323.332458,231.172905 C324.99297,231.172905 326.242144,230.870676 327.080017,230.26621 C327.643677,229.843083 327.925503,229.276405 327.925503,228.566157 C327.925503,228.082584 327.773165,227.682131 327.468483,227.364787 C327.148568,227.062553 326.432578,226.782992 325.320493,226.526094 C320.140914,225.39272 316.858025,224.357587 315.471726,223.420664 C313.552235,222.121062 312.592504,220.315246 312.592504,218.003163 C312.592504,215.917754 313.422747,214.164829 315.083259,212.744333 C316.743771,211.323838 319.318288,210.6136 322.806886,210.6136 C326.12791,210.6136 328.59579,211.150056 330.210599,212.222984 C331.825409,213.295911 332.937478,214.882611 333.546841,216.983131 L327.491334,218.093832 C327.232355,217.15691 326.741065,216.439117 326.017447,215.940432 C325.293829,215.441748 324.261738,215.192409 322.921141,215.192409 C321.230161,215.192409 320.019072,215.426636 319.287837,215.895098 C318.800348,216.227554 318.556606,216.65823 318.556606,217.187138 C318.556606,217.640487 318.76988,218.025829 319.196433,218.343173 C319.775327,218.7663 321.774767,219.363201 325.194812,220.133896 C328.614857,220.90459 331.00276,221.849054 332.35859,222.967317 C333.699187,224.100691 334.369475,225.679835 334.369475,227.704797 C334.369475,229.911099 333.440212,231.807583 331.581657,233.394307 C329.723103,234.981031 326.973397,235.774381 323.332458,235.774381 C320.026669,235.774381 317.410259,235.109478 315.483151,233.779652 C313.556043,232.449826 312.295444,230.644011 311.701316,228.362151 L311.701316,228.362151 Z M352.513143,211.157617 L358.431544,211.157617 L358.431544,214.444386 C360.549077,211.890516 363.070275,210.6136 365.995214,210.6136 C367.549087,210.6136 368.897281,210.93094 370.039835,211.56563 C371.182389,212.200319 372.119269,213.159895 372.850504,214.444386 C373.916888,213.159895 375.067041,212.200319 376.301,211.56563 C377.534958,210.93094 378.852684,210.6136 380.254217,210.6136 C382.036601,210.6136 383.54475,210.972497 384.778708,211.6903 C386.012667,212.408104 386.934313,213.462126 387.543675,214.852399 C387.985463,215.879991 388.206353,217.542248 388.206353,219.83922 L388.206353,235.230364 L381.785232,235.230364 L381.785232,221.47127 C381.785232,219.083629 381.564341,217.542263 381.122554,216.847127 C380.528426,215.940428 379.614396,215.487085 378.380438,215.487085 C377.481629,215.487085 376.636151,215.759091 375.84398,216.30311 C375.05181,216.84713 374.480541,217.644258 374.130158,218.694518 C373.779775,219.744778 373.604586,221.403257 373.604586,223.670005 L373.604586,235.230364 L367.183464,235.230364 L367.183464,222.037955 C367.183464,219.695648 367.06921,218.184505 366.840699,217.504481 C366.612189,216.824456 366.258002,216.318223 365.778129,215.985767 C365.298257,215.653311 364.647011,215.487085 363.824372,215.487085 C362.834158,215.487085 361.942979,215.751535 361.150809,216.280443 C360.358638,216.809351 359.791178,217.572478 359.448412,218.569847 C359.105645,219.567216 358.934265,221.221918 358.934265,223.534001 L358.934265,235.230364 L352.513143,235.230364 L352.513143,211.157617 Z M399.403327,218.501845 L393.576331,217.459146 C394.231395,215.131951 395.358698,213.409248 396.958274,212.290986 C398.55785,211.172723 400.934326,210.6136 404.087776,210.6136 C406.951778,210.6136 409.084513,210.94983 410.486046,211.622298 C411.887579,212.294767 412.873969,213.148563 413.445246,214.183711 C414.016523,215.21886 414.302158,217.119122 414.302158,219.884555 L414.233605,227.319452 C414.233605,229.435084 414.336433,230.995339 414.542093,232.000264 C414.747753,233.005189 415.132407,234.081878 415.696067,235.230364 L409.343498,235.230364 C409.175923,234.807237 408.970267,234.180113 408.726522,233.348972 C408.619883,232.971181 408.543714,232.721842 408.498012,232.600949 C407.40116,233.658765 406.228156,234.452115 404.978963,234.981023 C403.729771,235.509931 402.396811,235.774381 400.980044,235.774381 C398.481659,235.774381 396.512687,235.101922 395.073069,233.756985 C393.633451,232.412047 392.913653,230.712012 392.913653,228.656827 C392.913653,227.296778 393.24118,226.084085 393.896244,225.018714 C394.551309,223.953342 395.469147,223.137325 396.649786,222.570638 C397.830425,222.003951 399.532805,221.509051 401.756977,221.085925 C404.758086,220.526794 406.837503,220.00545 407.995291,219.521877 L407.995291,218.88719 C407.995291,217.663146 407.690614,216.790461 407.081252,216.269109 C406.47189,215.747757 405.321736,215.487085 403.630756,215.487085 C402.488202,215.487085 401.597023,215.709978 400.957193,216.155772 C400.317363,216.601566 399.799413,217.383583 399.403327,218.501845 L399.403327,218.501845 Z M407.995291,223.670005 C407.172652,223.942015 405.87016,224.266911 404.087776,224.644702 C402.305391,225.022494 401.140004,225.392724 400.591578,225.755403 C399.753705,226.344758 399.334774,227.092774 399.334774,227.999473 C399.334774,228.891061 399.669919,229.661743 400.340217,230.311545 C401.010515,230.961346 401.86361,231.286241 402.899525,231.286241 C404.057313,231.286241 405.161766,230.908456 406.212915,230.152873 C406.989852,229.57863 407.500185,228.875949 407.74393,228.044808 C407.911505,227.500788 407.995291,226.465655 407.995291,224.939378 L407.995291,223.670005 Z M442.888717,235.230364 L436.924615,235.230364 L436.924615,231.694254 C435.934401,233.069415 434.765205,234.093214 433.416992,234.765683 C432.068778,235.438151 430.709159,235.774381 429.338094,235.774381 C426.550262,235.774381 424.16236,234.659913 422.174316,232.430944 C420.186272,230.201974 419.192265,227.092798 419.192265,223.103321 C419.192265,219.023174 420.159613,215.921553 422.094337,213.798366 C424.029062,211.675178 426.474091,210.6136 429.429498,210.6136 C432.141159,210.6136 434.487169,211.731846 436.467596,213.968371 L436.467596,202 L442.888717,202 L442.888717,235.230364 Z M425.750492,222.672641 C425.750492,225.241622 426.108487,227.100328 426.824488,228.248814 C427.860403,229.911096 429.307617,230.742225 431.166171,230.742225 C432.643875,230.742225 433.900665,230.118878 434.936581,228.872167 C435.972497,227.625455 436.490447,225.762971 436.490447,223.28466 C436.490447,220.519227 435.98773,218.528296 434.982283,217.311808 C433.976835,216.09532 432.689577,215.487085 431.120469,215.487085 C429.597064,215.487085 428.321231,216.087764 427.292932,217.289141 C426.264634,218.490517 425.750492,220.284999 425.750492,222.672641 L425.750492,222.672641 Z M463.27178,227.568793 L469.670051,228.634159 C468.847412,230.961354 467.548728,232.733169 465.773961,233.949657 C463.999193,235.166146 461.778863,235.774381 459.112904,235.774381 C454.893071,235.774381 451.770137,234.406796 449.744007,231.671587 C448.144432,229.480397 447.344656,226.715005 447.344656,223.375329 C447.344656,219.385852 448.39579,216.261565 450.498089,214.002372 C452.600389,211.74318 455.258691,210.6136 458.473077,210.6136 C462.083548,210.6136 464.932273,211.79607 467.019338,214.161044 C469.106404,216.526018 470.104219,220.148983 470.012815,225.030047 L453.925734,225.030047 C453.971437,226.919004 454.489387,228.388591 455.4796,229.438851 C456.469814,230.489111 457.703753,231.014233 459.181457,231.014233 C460.186904,231.014233 461.032382,230.742227 461.717914,230.198208 C462.403447,229.654188 462.921397,228.777725 463.27178,227.568793 L463.27178,227.568793 Z M463.637395,221.13126 C463.591693,219.287638 463.111828,217.886053 462.197784,216.926463 C461.283741,215.966873 460.171672,215.487085 458.861543,215.487085 C457.46001,215.487085 456.302239,215.993318 455.388196,217.005799 C454.474153,218.01828 454.024755,219.39342 454.039989,221.13126 L463.637395,221.13126 Z M502.301231,227.568793 L508.699502,228.634159 C507.876863,230.961354 506.57818,232.733169 504.803412,233.949657 C503.028645,235.166146 500.808315,235.774381 498.142355,235.774381 C493.922522,235.774381 490.799588,234.406796 488.773459,231.671587 C487.173883,229.480397 486.374107,226.715005 486.374107,223.375329 C486.374107,219.385852 487.425241,216.261565 489.527541,214.002372 C491.62984,211.74318 494.288143,210.6136 497.502528,210.6136 C501.112999,210.6136 503.961724,211.79607 506.04879,214.161044 C508.135855,216.526018 509.133671,220.148983 509.042267,225.030047 L492.955186,225.030047 C493.000888,226.919004 493.518838,228.388591 494.509052,229.438851 C495.499265,230.489111 496.733205,231.014233 498.210908,231.014233 C499.216356,231.014233 500.061833,230.742227 500.747366,230.198208 C501.432898,229.654188 501.950848,228.777725 502.301231,227.568793 L502.301231,227.568793 Z M502.666847,221.13126 C502.621145,219.287638 502.141279,217.886053 501.227236,216.926463 C500.313193,215.966873 499.201123,215.487085 497.890995,215.487085 C496.489462,215.487085 495.331691,215.993318 494.417648,217.005799 C493.503604,218.01828 493.054207,219.39342 493.069441,221.13126 L502.666847,221.13126 Z M519.073841,218.501845 L513.246844,217.459146 C513.901909,215.131951 515.029212,213.409248 516.628788,212.290986 C518.228363,211.172723 520.60484,210.6136 523.758289,210.6136 C526.622291,210.6136 528.755027,210.94983 530.15656,211.622298 C531.558093,212.294767 532.544483,213.148563 533.11576,214.183711 C533.687037,215.21886 533.972671,217.119122 533.972671,219.884555 L533.904119,227.319452 C533.904119,229.435084 534.006947,230.995339 534.212607,232.000264 C534.418266,233.005189 534.80292,234.081878 535.36658,235.230364 L529.014012,235.230364 C528.846437,234.807237 528.64078,234.180113 528.397036,233.348972 C528.290397,232.971181 528.214228,232.721842 528.168526,232.600949 C527.071674,233.658765 525.898669,234.452115 524.649477,234.981023 C523.400285,235.509931 522.067325,235.774381 520.650558,235.774381 C518.152173,235.774381 516.183201,235.101922 514.743583,233.756985 C513.303965,232.412047 512.584166,230.712012 512.584166,228.656827 C512.584166,227.296778 512.911694,226.084085 513.566758,225.018714 C514.221822,223.953342 515.13966,223.137325 516.3203,222.570638 C517.500939,222.003951 519.203319,221.509051 521.427491,221.085925 C524.428599,220.526794 526.508016,220.00545 527.665805,219.521877 L527.665805,218.88719 C527.665805,217.663146 527.361128,216.790461 526.751766,216.269109 C526.142404,215.747757 524.99225,215.487085 523.30127,215.487085 C522.158716,215.487085 521.267537,215.709978 520.627707,216.155772 C519.987877,216.601566 519.469926,217.383583 519.073841,218.501845 L519.073841,218.501845 Z M527.665805,223.670005 C526.843166,223.942015 525.540674,224.266911 523.758289,224.644702 C521.975905,225.022494 520.810517,225.392724 520.262091,225.755403 C519.424218,226.344758 519.005288,227.092774 519.005288,227.999473 C519.005288,228.891061 519.340432,229.661743 520.010731,230.311545 C520.681029,230.961346 521.534123,231.286241 522.570039,231.286241 C523.727827,231.286241 524.832279,230.908456 525.883429,230.152873 C526.660366,229.57863 527.170699,228.875949 527.414444,228.044808 C527.582019,227.500788 527.665805,226.465655 527.665805,224.939378 L527.665805,223.670005 Z M538.040144,228.362151 L544.484116,227.387454 C544.758329,228.62661 545.314364,229.567296 546.152237,230.209541 C546.99011,230.851787 548.163114,231.172905 549.671286,231.172905 C551.331798,231.172905 552.580971,230.870676 553.418844,230.26621 C553.982504,229.843083 554.26433,229.276405 554.26433,228.566157 C554.26433,228.082584 554.111992,227.682131 553.807311,227.364787 C553.487396,227.062553 552.771406,226.782992 551.65932,226.526094 C546.479741,225.39272 543.196852,224.357587 541.810553,223.420664 C539.891062,222.121062 538.931331,220.315246 538.931331,218.003163 C538.931331,215.917754 539.761575,214.164829 541.422087,212.744333 C543.082599,211.323838 545.657115,210.6136 549.145714,210.6136 C552.466737,210.6136 554.934617,211.150056 556.549427,212.222984 C558.164237,213.295911 559.276306,214.882611 559.885668,216.983131 L553.830162,218.093832 C553.571183,217.15691 553.079892,216.439117 552.356274,215.940432 C551.632657,215.441748 550.600565,215.192409 549.259968,215.192409 C547.568988,215.192409 546.357899,215.426636 545.626665,215.895098 C545.139175,216.227554 544.895434,216.65823 544.895434,217.187138 C544.895434,217.640487 545.108707,218.025829 545.535261,218.343173 C546.114155,218.7663 548.113594,219.363201 551.53364,220.133896 C554.953685,220.90459 557.341587,221.849054 558.697418,222.967317 C560.038014,224.100691 560.708303,225.679835 560.708303,227.704797 C560.708303,229.911099 559.779039,231.807583 557.920485,233.394307 C556.06193,234.981031 553.312225,235.774381 549.671286,235.774381 C546.365496,235.774381 543.749086,235.109478 541.821979,233.779652 C539.894871,232.449826 538.634272,230.644011 538.040144,228.362151 L538.040144,228.362151 Z M563.290462,211.157617 L570.122901,211.157617 L575.927047,228.248814 L581.594087,211.157617 L588.243718,211.157617 L579.674605,234.323669 L578.143591,238.517132 C577.579931,239.922516 577.042938,240.995428 576.532597,241.735899 C576.022257,242.47637 575.435754,243.077049 574.773073,243.537955 C574.110392,243.99886 573.295382,244.357757 572.328019,244.614655 C571.360657,244.871553 570.26763,245 569.048906,245 C567.814947,245 566.603858,244.871553 565.415602,244.614655 L564.844328,239.627833 C565.849775,239.824285 566.756188,239.922509 567.563593,239.922509 C569.05653,239.922509 570.160983,239.488056 570.876983,238.619135 C571.592984,237.750215 572.141401,236.643303 572.522253,235.298366 L563.290462,211.157617 Z" id="Taxi-booking’s-made" fill="#F7B926"></path>
            </g>
        </g>
    </g>
</svg>