<?xml version="1.0" encoding="UTF-8" standalone="no"?>
<svg width="80px" height="80px" viewBox="0 0 80 80" version="1.1" xmlns="http://www.w3.org/2000/svg" xmlns:xlink="http://www.w3.org/1999/xlink">
    <!-- Generator: Sketch 39.1 (31720) - http://www.bohemiancoding.com/sketch -->
    <title>step-1</title>
    <desc>Created with Sketch.</desc>
    <defs></defs>
    <g id="Page-1" stroke="none" stroke-width="1" fill="none" fill-rule="evenodd">
        <g id="step-1">
            <g id="Group-2">
                <circle id="Oval-3" fill="#F7B926" cx="40" cy="40" r="40"></circle>
                <g id="Group" transform="translate(10.000000, 14.000000)" fill="#000000">
                    <path d="M59.0425515,0.0640845053 L0.957446782,0.0640845053 C0.428680839,0.0640845053 0,0.494347874 0,1.02535208 L0,53.5746464 C0,54.1056506 0.428680839,54.535914 0.957446782,54.535914 L59.0425515,54.535914 C59.5713175,54.535914 59.9999983,54.1056506 59.9999983,53.5746464 L59.9999983,43.3211255 C59.9999983,42.7901213 59.5713175,42.359858 59.0425515,42.359858 C58.5137856,42.359858 58.0851048,42.7901213 58.0851048,43.3211255 L58.0851048,52.6133788 L1.91489356,52.6133788 L1.91489356,9.67676029 L58.0851048,9.67676029 L58.0851048,39.4760552 C58.0851048,40.0070594 58.5137856,40.4373228 59.0425515,40.4373228 C59.5713175,40.4373228 59.9999983,40.0070594 59.9999983,39.4760552 L59.9999983,1.02535208 C59.9999983,0.494347874 59.5713175,0.0640845053 59.0425515,0.0640845053 L59.0425515,0.0640845053 Z M1.91489356,1.98661966 L37.3404245,1.98661966 L37.3404245,7.75422514 L1.91489356,7.75422514 L1.91489356,1.98661966 L1.91489356,1.98661966 Z M39.2553181,7.75422514 L39.2553181,1.98661966 L58.0851048,1.98661966 L58.0851048,7.75422514 L39.2553181,7.75422514 L39.2553181,7.75422514 Z" id="Shape"></path>
                    <path d="M48.7021263,3.84507032 C48.1390199,3.84507032 47.6808497,4.30506889 47.6808497,4.8704224 C47.6808497,5.4357759 48.1390199,5.89577448 48.7021263,5.89577448 C49.2652327,5.89577448 49.7234029,5.4357759 49.7234029,4.8704224 C49.7234029,4.30506889 49.2652327,3.84507032 48.7021263,3.84507032 L48.7021263,3.84507032 Z" id="Shape"></path>
                    <path d="M43.4680839,3.84507032 C42.9049775,3.84507032 42.4468073,4.30506889 42.4468073,4.8704224 C42.4468073,5.4357759 42.9049775,5.89577448 43.4680839,5.89577448 C44.0311903,5.89577448 44.4893605,5.4357759 44.4893605,4.8704224 C44.4893605,4.30506889 44.0311903,3.84507032 43.4680839,3.84507032 L43.4680839,3.84507032 Z" id="Shape"></path>
                    <path d="M53.9361687,3.84507032 C53.3730623,3.84507032 52.9148921,4.30506889 52.9148921,4.8704224 C52.9148921,5.4357759 53.3730623,5.89577448 53.9361687,5.89577448 C54.4992751,5.89577448 54.9574453,5.4357759 54.9574453,4.8704224 C54.9574453,4.30506889 54.4992751,3.84507032 53.9361687,3.84507032 L53.9361687,3.84507032 Z" id="Shape"></path>
                    <path d="M18.9847654,26.1450683 C19.3612335,26.0977739 19.6743824,25.8319514 19.7831484,25.4670542 L21.985659,18.0852882 C22.1373185,17.5767136 21.8498292,17.0409671 21.343276,16.8885742 C20.8369781,16.7363094 20.3031058,17.024946 20.1513186,17.5335206 L18.5716591,22.8276698 L17.0489357,20.2760811 C16.875957,19.9861628 16.5642123,19.8087769 16.227574,19.8087769 C15.8909357,19.8087769 15.5791911,19.9861628 15.4062123,20.2760811 L13.883489,22.8276698 L12.3040848,17.534546 C12.1524252,17.0259714 11.6186805,16.7372066 11.1121273,16.8895995 C10.6055742,17.0418643 10.3179572,17.5777389 10.4697444,18.0863136 L12.6719996,25.4670542 C12.7808933,25.8319514 13.0940422,26.0977739 13.4703826,26.1450683 C13.5102124,26.1500669 13.5499145,26.1525021 13.5893613,26.1525021 C13.9228081,26.1525021 14.2360847,25.9774232 14.4104677,25.6851979 L16.2274464,22.6404149 L18.044425,25.6851979 C18.2397442,26.0119007 18.6086803,26.192619 18.9847654,26.1450683 L18.9847654,26.1450683 Z" id="Shape"></path>
                    <path d="M26.3435737,26.1441711 C26.3834035,26.1491697 26.4231056,26.1516049 26.4625525,26.1516049 C26.7959993,26.1516049 27.1092758,25.976526 27.2836588,25.6843007 L29.1006375,22.6395177 L30.9176162,25.6843007 C31.1125523,26.0110035 31.4813608,26.1914655 31.8577012,26.1441711 C32.2341693,26.0968767 32.5473182,25.8310542 32.6560842,25.466157 L34.8585948,18.084391 C35.0102543,17.5758164 34.722765,17.0400699 34.2162118,16.887677 C33.7096586,16.735284 33.1760416,17.0239207 33.0242544,17.5326235 L31.4445949,22.8269008 L29.9218715,20.2753121 C29.7488928,19.9853938 29.4371481,19.8080079 29.1005098,19.8080079 C28.7638715,19.8080079 28.4521269,19.9853938 28.2791481,20.2753121 L26.7566801,22.8269008 L25.1772759,17.5336488 C25.0256163,17.0250742 24.492127,16.7361812 23.9853185,16.8887023 C23.4787653,17.0409671 23.1911483,17.5768418 23.3429355,18.0854164 L25.5451908,25.4662852 C25.6540844,25.8310542 25.9672333,26.0968767 26.3435737,26.1441711 L26.3435737,26.1441711 Z" id="Shape"></path>
                    <path d="M47.0891476,16.886908 C46.5827221,16.7346432 46.0489774,17.0232798 45.8971902,17.5318544 L44.3175307,22.8258754 L42.7948073,20.2742868 C42.6218286,19.9843685 42.3100839,19.8069825 41.9734456,19.8069825 C41.6368073,19.8069825 41.3250627,19.9843685 41.152084,20.2742868 L39.6293606,22.8258754 L38.0499564,17.5327516 C37.8981692,17.0243052 37.3648075,16.7355404 36.857999,16.8878052 C36.3514458,17.0400699 36.0638288,17.5759446 36.215616,18.0845192 L38.4178713,25.4652599 C38.5267649,25.830157 38.8399138,26.0959796 39.2162542,26.1432739 C39.5927223,26.1905683 39.9612755,26.0102345 40.1563393,25.6834035 L41.973318,22.6386205 L43.7902966,25.6834035 C43.9646796,25.9755007 44.2778285,26.1507077 44.611403,26.1507077 C44.6508498,26.1507077 44.6906796,26.1482725 44.7303817,26.1432739 C45.1068498,26.0959796 45.4199987,25.830157 45.5287647,25.4652599 L47.7312753,18.083622 C47.8831902,17.5750474 47.5957008,17.0391728 47.0891476,16.886908 L47.0891476,16.886908 Z" id="Shape"></path>
                    <path d="M17.4510633,31.599685 C17.4510633,31.0686808 17.0223825,30.6384175 16.4936166,30.6384175 L11.3872337,30.6384175 C10.8584678,30.6384175 10.4297869,31.0686808 10.4297869,31.599685 L10.4297869,36.7264455 C10.4297869,37.2574497 10.8584678,37.687713 11.3872337,37.687713 L16.4936166,37.687713 C17.0223825,37.687713 17.4510633,37.2574497 17.4510633,36.7264455 L17.4510633,31.599685 L17.4510633,31.599685 Z M15.5361698,35.7651779 L12.3446805,35.7651779 L12.3446805,32.5609526 L15.5361698,32.5609526 L15.5361698,35.7651779 L15.5361698,35.7651779 Z" id="Shape"></path>
                    <path d="M16.4936166,39.6102482 L11.3872337,39.6102482 C10.8584678,39.6102482 10.4297869,40.0405116 10.4297869,40.5715158 L10.4297869,45.6982762 C10.4297869,46.2292804 10.8584678,46.6595438 11.3872337,46.6595438 L16.4936166,46.6595438 C17.0223825,46.6595438 17.4510633,46.2292804 17.4510633,45.6982762 L17.4510633,40.5715158 C17.4510633,40.0405116 17.0223825,39.6102482 16.4936166,39.6102482 L16.4936166,39.6102482 Z M15.5361698,44.7370086 L12.3446805,44.7370086 L12.3446805,41.5327833 L15.5361698,41.5327833 L15.5361698,44.7370086 L15.5361698,44.7370086 Z" id="Shape"></path>
                    <path d="M46.8142966,33.2017977 L42.9845094,33.2017977 C42.4557435,33.2017977 42.0270627,33.632061 42.0270627,34.1630652 C42.0270627,34.6940695 42.4557435,35.1243328 42.9845094,35.1243328 L46.8142966,35.1243328 C47.3430625,35.1243328 47.7717433,34.6940695 47.7717433,34.1630652 C47.7717433,33.632061 47.3430625,33.2017977 46.8142966,33.2017977 L46.8142966,33.2017977 Z" id="Shape"></path>
                    <path d="M39.1547223,33.2017977 L20.3234037,33.2017977 C19.7946377,33.2017977 19.3659569,33.632061 19.3659569,34.1630652 C19.3659569,34.6940695 19.7946377,35.1243328 20.3234037,35.1243328 L39.15485,35.1243328 C39.6836159,35.1243328 40.1122968,34.6940695 40.1122968,34.1630652 C40.1122968,33.632061 39.6834883,33.2017977 39.1547223,33.2017977 L39.1547223,33.2017977 Z" id="Shape"></path>
                    <path d="M46.8142966,42.1736284 L42.9845094,42.1736284 C42.4557435,42.1736284 42.0270627,42.6038918 42.0270627,43.134896 C42.0270627,43.6659002 42.4557435,44.0961636 42.9845094,44.0961636 L46.8142966,44.0961636 C47.3430625,44.0961636 47.7717433,43.6659002 47.7717433,43.134896 C47.7717433,42.6038918 47.3430625,42.1736284 46.8142966,42.1736284 L46.8142966,42.1736284 Z" id="Shape"></path>
                    <path d="M39.1547223,42.1736284 L20.3234037,42.1736284 C19.7946377,42.1736284 19.3659569,42.6038918 19.3659569,43.134896 C19.3659569,43.6659002 19.7946377,44.0961636 20.3234037,44.0961636 L39.15485,44.0961636 C39.6836159,44.0961636 40.1122968,43.6659002 40.1122968,43.134896 C40.1122968,42.6038918 39.6834883,42.1736284 39.1547223,42.1736284 L39.1547223,42.1736284 Z" id="Shape"></path>
                </g>
            </g>
        </g>
    </g>
</svg>