<?xml version="1.0" encoding="UTF-8" standalone="no"?>
<svg width="80px" height="80px" viewBox="0 0 80 80" version="1.1" xmlns="http://www.w3.org/2000/svg" xmlns:xlink="http://www.w3.org/1999/xlink">
    <!-- Generator: Sketch 39.1 (31720) - http://www.bohemiancoding.com/sketch -->
    <title>step-3</title>
    <desc>Created with Sketch.</desc>
    <defs></defs>
    <g id="Page-1" stroke="none" stroke-width="1" fill="none" fill-rule="evenodd">
        <g id="step-3">
            <g id="Group-4">
                <circle id="Oval-3-Copy-2" fill="#F7B926" cx="40" cy="40" r="40"></circle>
                <g id="Layer_1" transform="translate(10.000000, 13.000000)" fill="#000000">
                    <g id="Group">
                        <path d="M7.42398649,20.270473 L11.8804054,20.270473 L12.5706081,23.3756757 L14.4557432,22.9566892 L12.9441892,16.1545946 C12.5993919,14.5994595 11.2451351,13.5135811 9.6525,13.5135811 C8.05986486,13.5135811 6.70560811,14.5994595 6.36101351,16.1535811 L4.84945946,22.9566892 L6.73459459,23.3756757 L7.42398649,20.270473 L7.42398649,20.270473 Z M8.24635135,16.5713514 C8.39310811,15.9072973 8.97222973,15.4439189 9.6527027,15.4439189 C10.3331757,15.4439189 10.9122973,15.9072973 11.0590541,16.5723649 L11.4518919,18.3397297 L7.85331081,18.3397297 L8.24635135,16.5713514 L8.24635135,16.5713514 Z" id="Shape"></path>
                        <path d="M59.8457432,9.6525 C59.8457432,4.33013514 55.5156081,0 50.1932432,0 C44.8708784,0 40.5407432,4.33013514 40.5407432,9.6525 C40.5407432,11.7731757 41.2366216,13.7896622 42.4838514,15.4439189 L40.5407432,15.4439189 L40.5407432,18.3397297 C40.5407432,19.9362162 41.8400676,21.2355405 43.4365541,21.2355405 L49.227973,21.2355405 L49.227973,22.6062162 C49.227973,23.055 48.9229054,23.4411486 48.4856757,23.5453378 L11.8060135,32.2789865 C11.5125,32.3475 11.2171622,32.2810135 10.9836486,32.0975676 C10.7519595,31.9131081 10.6177703,31.6372297 10.6177703,31.3398649 L10.6177703,30.8880405 L16.4091892,30.8880405 C18.0056757,30.8880405 19.305,29.5887162 19.305,27.9922297 L19.305,25.0966216 L17.3618919,25.0966216 C18.6089189,23.4421622 19.305,21.4256757 19.305,19.3052027 C19.305,13.9828378 14.9748649,9.6527027 9.6525,9.6527027 C4.33013514,9.6527027 0,13.9826351 0,19.305 C0,21.4256757 0.695878378,23.4421622 1.94310811,25.0964189 L0.000202702703,25.0964189 L0.000202702703,27.9922297 C0.000202702703,29.5887162 1.29952703,30.8880405 2.89601351,30.8880405 L8.68743243,30.8880405 L8.68743243,31.3398649 C8.68743243,32.2317568 9.08898649,33.06 9.78871622,33.6121622 C10.307027,34.0214189 10.9343919,34.2366892 11.5773649,34.2366892 C11.8023649,34.2366892 12.03,34.2105405 12.2539865,34.1566216 L27.9229054,30.4258784 C27.8929054,30.5205405 27.8641216,30.6160135 27.8477027,30.7163514 L22.9915541,59.8457432 L36.8535811,59.8457432 L31.9984459,30.7163514 C31.9250676,30.2752703 31.7146622,29.8919595 31.4211486,29.5927703 L48.9326351,25.422973 C50.2435135,25.1122297 51.1585135,23.9537838 51.1585135,22.6064189 L51.1585135,21.2357432 L56.9499324,21.2357432 C58.5464189,21.2357432 59.8457432,19.9364189 59.8457432,18.3399324 L59.8457432,15.4439189 L57.9026351,15.4439189 C59.1496622,13.7896622 59.8457432,11.7731757 59.8457432,9.6525 L59.8457432,9.6525 Z M1.93054054,19.305 C1.93054054,15.0472297 5.39472973,11.5830405 9.6525,11.5830405 C13.9102703,11.5830405 17.3744595,15.0472297 17.3744595,19.305 C17.3744595,21.5347297 16.4245946,23.6274324 14.7547297,25.0964189 L4.55047297,25.0964189 C2.88060811,23.6274324 1.93054054,21.5347297 1.93054054,19.305 L1.93054054,19.305 Z M2.89601351,28.9575 C2.36310811,28.9575 1.93074324,28.5241216 1.93074324,27.9922297 L1.93074324,27.0269595 L3.85641892,27.0269595 L15.4489865,27.0269595 L17.3746622,27.0269595 L17.3746622,27.9922297 C17.3746622,28.5241216 16.9422973,28.9575 16.4093919,28.9575 L2.89601351,28.9575 L2.89601351,28.9575 Z M34.5745946,57.915 L25.2705405,57.915 L29.7512838,31.0327703 C29.7792568,30.8647297 30.0658784,30.8647297 30.0938514,31.0327703 L34.5745946,57.915 L34.5745946,57.915 Z M42.4710811,9.6525 C42.4710811,5.39472973 45.9352703,1.93054054 50.1930405,1.93054054 C54.4508108,1.93054054 57.915,5.39472973 57.915,9.6525 C57.915,11.8822297 56.9651351,13.9749324 55.2952703,15.4439189 L45.0906081,15.4439189 C43.4211486,13.9749324 42.4710811,11.8822297 42.4710811,9.6525 L42.4710811,9.6525 Z M57.915,17.3744595 L57.915,18.3397297 L57.9152027,18.3397297 C57.9152027,18.8716216 57.4828378,19.305 56.9499324,19.305 L43.4363514,19.305 C42.9034459,19.305 42.4710811,18.8716216 42.4710811,18.3397297 L42.4710811,17.3744595 L44.3967568,17.3744595 L55.9893243,17.3744595 L57.915,17.3744595 L57.915,17.3744595 Z" id="Shape"></path>
                        <path d="M54.0541216,10.6177703 C54.0541216,9.87648649 53.7741892,9.19986486 53.3146622,8.68722973 C53.7741892,8.17459459 54.0541216,7.49797297 54.0541216,6.75668919 C54.0541216,5.1602027 52.7547973,3.86108108 51.1583108,3.86108108 L46.3319595,3.86108108 L46.3319595,13.5135811 L51.1583108,13.5135811 C52.755,13.5135811 54.0541216,12.2142568 54.0541216,10.6177703 L54.0541216,10.6177703 Z M48.2627027,5.79141892 L51.1585135,5.79141892 C51.6914189,5.79141892 52.1237838,6.2247973 52.1237838,6.75668919 C52.1237838,7.28858108 51.6914189,7.72195946 51.1585135,7.72195946 L48.2627027,7.72195946 L48.2627027,5.79141892 L48.2627027,5.79141892 Z M48.2627027,9.6525 L51.1585135,9.6525 C51.6914189,9.6525 52.1237838,10.0858784 52.1237838,10.6177703 C52.1237838,11.1496622 51.6914189,11.5830405 51.1585135,11.5830405 L48.2627027,11.5830405 L48.2627027,9.6525 L48.2627027,9.6525 Z" id="Shape"></path>
                    </g>
                </g>
            </g>
        </g>
    </g>
</svg>