<?xml version="1.0" encoding="UTF-8" standalone="no"?>
<svg width="80px" height="80px" viewBox="0 0 80 80" version="1.1" xmlns="http://www.w3.org/2000/svg" xmlns:xlink="http://www.w3.org/1999/xlink">
    <!-- Generator: Sketch 39.1 (31720) - http://www.bohemiancoding.com/sketch -->
    <title>step-2</title>
    <desc>Created with Sketch.</desc>
    <defs></defs>
    <g id="Page-1" stroke="none" stroke-width="1" fill="none" fill-rule="evenodd">
        <g id="step-2">
            <g id="Group-3">
                <circle id="Oval-3-Copy" fill="#F7B926" cx="40" cy="40" r="40"></circle>
                <g id="Capa_1" transform="translate(10.000000, 13.000000)" fill="#000000">
                    <g id="Group">
                        <path d="M21.021,28.977 C18.75,26.412 15.722,25 12.493,25 C9.264,25 6.236,26.412 3.966,28.977 C-0.646,34.188 -0.646,42.665 3.966,47.876 L12.493,57.509 L21.02,47.876 C25.633,42.665 25.633,34.188 21.021,28.977 L21.021,28.977 Z M19.523,46.55 L12.494,54.491 L5.464,46.55 C1.498,42.071 1.498,34.782 5.464,30.303 C7.349,28.173 9.846,27 12.493,27 C15.14,27 17.638,28.173 19.522,30.303 C23.488,34.782 23.488,42.07 19.523,46.55 L19.523,46.55 Z" id="Shape"></path>
                        <path d="M48.747,24.507 L55.211,17.221 C58.689,13.301 58.689,6.925 55.211,3.005 C53.491,1.067 51.195,0 48.746,0 C46.298,0 44.002,1.067 42.282,3.005 C38.804,6.925 38.804,13.301 42.282,17.221 L48.747,24.507 L48.747,24.507 Z M43.778,4.333 C45.113,2.828 46.877,2 48.746,2 C50.616,2 52.38,2.828 53.715,4.333 C56.543,7.52 56.543,12.706 53.715,15.893 L48.747,21.494 L43.778,15.893 C40.95,12.706 40.95,7.52 43.778,4.333 L43.778,4.333 Z" id="Shape"></path>
                        <path d="M52.604,54.517 C52.065,54.396 51.53,54.734 51.409,55.273 C51.294,55.783 51.071,56.252 50.746,56.665 C50.405,57.099 50.479,57.728 50.914,58.069 C51.098,58.213 51.315,58.283 51.531,58.283 C51.828,58.283 52.121,58.152 52.318,57.901 C52.822,57.261 53.182,56.505 53.36,55.713 C53.481,55.173 53.143,54.638 52.604,54.517 L52.604,54.517 Z" id="Shape"></path>
                        <path d="M31.995,31 C31.562,30.999 31.141,30.922 30.743,30.77 C30.231,30.575 29.65,30.832 29.452,31.348 C29.256,31.864 29.515,32.442 30.03,32.639 C30.656,32.877 31.315,32.999 31.993,33 L32.35,33 C32.903,33 33.35,32.553 33.35,32 C33.35,31.447 32.903,31 32.35,31 L31.995,31 L31.995,31 Z" id="Shape"></path>
                        <path d="M29.621,24.676 C29.802,24.676 29.984,24.627 30.149,24.525 C30.592,24.249 31.082,24.08 31.603,24.022 C32.152,23.961 32.548,23.467 32.488,22.918 C32.428,22.369 31.937,21.977 31.384,22.033 C30.562,22.124 29.79,22.39 29.09,22.827 C28.621,23.119 28.479,23.736 28.771,24.205 C28.961,24.509 29.287,24.676 29.621,24.676 L29.621,24.676 Z" id="Shape"></path>
                        <path d="M18.064,58 L16.064,58 C15.511,58 15.064,58.447 15.064,59 C15.064,59.553 15.511,60 16.064,60 L18.064,60 C18.617,60 19.064,59.553 19.064,59 C19.064,58.447 18.616,58 18.064,58 L18.064,58 Z" id="Shape"></path>
                        <path d="M35.993,40 C35.907,40 35.822,40.002 35.737,40.006 C35.185,40.028 34.757,40.494 34.779,41.046 C34.8,41.584 35.244,42.005 35.777,42.005 C35.791,42.005 35.805,42.005 35.819,42.004 L37.778,42 C38.331,42 38.778,41.553 38.778,41 C38.778,40.447 38.331,40 37.778,40 L35.993,40 L35.993,40 Z" id="Shape"></path>
                        <path d="M35.493,24 L37.493,24 C38.046,24 38.493,23.553 38.493,23 C38.493,22.447 38.046,22 37.493,22 L35.493,22 C34.94,22 34.493,22.447 34.493,23 C34.493,23.553 34.94,24 35.493,24 L35.493,24 Z" id="Shape"></path>
                        <path d="M47.778,40 C47.225,40 46.778,40.447 46.778,41 C46.778,41.553 47.225,42 47.778,42 L49.778,42 C50.331,42 50.778,41.553 50.778,41 C50.778,40.447 50.331,40 49.778,40 L47.778,40 L47.778,40 Z" id="Shape"></path>
                        <path d="M51.351,32 C51.351,31.447 50.904,31 50.351,31 L48.351,31 C47.798,31 47.351,31.447 47.351,32 C47.351,32.553 47.798,33 48.351,33 L50.351,33 C50.903,33 51.351,32.553 51.351,32 L51.351,32 Z" id="Shape"></path>
                        <path d="M41.778,42 L43.778,42 C44.331,42 44.778,41.553 44.778,41 C44.778,40.447 44.331,40 43.778,40 L41.778,40 C41.225,40 40.778,40.447 40.778,41 C40.778,41.553 41.226,42 41.778,42 L41.778,42 Z" id="Shape"></path>
                        <path d="M43.493,24 C44.046,24 44.493,23.553 44.493,23 C44.493,22.447 44.046,22 43.493,22 L41.493,22 C40.94,22 40.493,22.447 40.493,23 C40.493,23.553 40.94,24 41.493,24 L43.493,24 L43.493,24 Z" id="Shape"></path>
                        <path d="M36.351,31 C35.798,31 35.351,31.447 35.351,32 C35.351,32.553 35.798,33 36.351,33 L38.351,33 C38.904,33 39.351,32.553 39.351,32 C39.351,31.447 38.904,31 38.351,31 L36.351,31 L36.351,31 Z" id="Shape"></path>
                        <path d="M45.351,32 C45.351,31.447 44.904,31 44.351,31 L42.351,31 C41.798,31 41.351,31.447 41.351,32 C41.351,32.553 41.798,33 42.351,33 L44.351,33 C44.903,33 45.351,32.553 45.351,32 L45.351,32 Z" id="Shape"></path>
                        <path d="M59.426,35.632 C59.338,35.086 58.823,34.713 58.28,34.803 C57.734,34.89 57.363,35.404 57.451,35.949 C57.479,36.127 57.495,36.308 57.493,36.501 C57.493,36.837 57.445,37.169 57.351,37.489 C57.196,38.019 57.499,38.575 58.03,38.73 C58.124,38.757 58.218,38.77 58.311,38.77 C58.744,38.77 59.143,38.488 59.271,38.051 C59.418,37.548 59.493,37.027 59.493,36.508 C59.495,36.22 59.473,35.925 59.426,35.632 L59.426,35.632 Z" id="Shape"></path>
                        <path d="M42.064,58 L40.064,58 C39.511,58 39.064,58.447 39.064,59 C39.064,59.553 39.511,60 40.064,60 L42.064,60 C42.617,60 43.064,59.553 43.064,59 C43.064,58.447 42.616,58 42.064,58 L42.064,58 Z" id="Shape"></path>
                        <path d="M36.064,58 L34.064,58 C33.511,58 33.064,58.447 33.064,59 C33.064,59.553 33.511,60 34.064,60 L36.064,60 C36.617,60 37.064,59.553 37.064,59 C37.064,58.447 36.616,58 36.064,58 L36.064,58 Z" id="Shape"></path>
                        <path d="M47.065,50 C47.065,49.447 46.618,49 46.065,49 L44.065,49 C43.512,49 43.065,49.447 43.065,50 C43.065,50.553 43.512,51 44.065,51 L46.065,51 C46.617,51 47.065,50.553 47.065,50 L47.065,50 Z" id="Shape"></path>
                        <path d="M41.065,50 C41.065,49.447 40.618,49 40.065,49 L38.065,49 C37.512,49 37.065,49.447 37.065,50 C37.065,50.553 37.512,51 38.065,51 L40.065,51 C40.617,51 41.065,50.553 41.065,50 L41.065,50 Z" id="Shape"></path>
                        <path d="M47.993,58 L46.063,58 C45.51,58 45.063,58.447 45.063,59 C45.063,59.553 45.51,60 46.063,60 L48.034,59.999 L48.063,58.999 L48.063,59.999 C48.616,59.999 49.028,59.552 49.028,58.999 C49.028,58.447 48.546,58 47.993,58 L47.993,58 Z" id="Shape"></path>
                        <path d="M51.531,52.719 C51.747,52.719 51.966,52.649 52.148,52.505 C52.583,52.163 52.657,51.534 52.316,51.101 C51.813,50.462 51.164,49.934 50.437,49.573 C49.94,49.326 49.342,49.529 49.096,50.023 C48.85,50.518 49.052,51.118 49.546,51.364 C50.009,51.593 50.423,51.93 50.743,52.338 C50.941,52.588 51.234,52.719 51.531,52.719 L51.531,52.719 Z" id="Shape"></path>
                        <path d="M55.345,39.729 C54.916,39.909 54.462,40 53.993,40 L53.778,40 C53.225,40 52.778,40.447 52.778,41 C52.778,41.553 53.225,42 53.778,42 L53.993,42 C54.729,42 55.444,41.856 56.118,41.573 C56.628,41.359 56.867,40.773 56.653,40.264 C56.44,39.755 55.85,39.515 55.345,39.729 L55.345,39.729 Z" id="Shape"></path>
                        <path d="M28.029,29.855 C28.553,29.682 28.839,29.117 28.667,28.592 C28.552,28.241 28.493,27.874 28.493,27.504 C28.494,27.353 28.503,27.202 28.521,27.055 C28.59,26.507 28.202,26.006 27.654,25.938 C27.089,25.875 26.605,26.259 26.537,26.805 C26.509,27.031 26.494,27.261 26.493,27.499 C26.493,28.087 26.585,28.665 26.766,29.217 C26.905,29.638 27.296,29.905 27.716,29.905 C27.82,29.905 27.926,29.89 28.029,29.855 L28.029,29.855 Z" id="Shape"></path>
                        <path d="M24.064,58 L22.064,58 C21.511,58 21.064,58.447 21.064,59 C21.064,59.553 21.511,60 22.064,60 L24.064,60 C24.617,60 25.064,59.553 25.064,59 C25.064,58.447 24.616,58 24.064,58 L24.064,58 Z" id="Shape"></path>
                        <path d="M34.122,50.594 C34.502,50.594 34.864,50.377 35.032,50.01 C35.261,49.507 35.041,48.914 34.539,48.685 C34.07,48.47 33.645,48.147 33.311,47.749 C32.955,47.326 32.325,47.271 31.902,47.627 C31.479,47.982 31.424,48.613 31.78,49.036 C32.304,49.659 32.97,50.167 33.707,50.503 C33.842,50.564 33.983,50.594 34.122,50.594 L34.122,50.594 Z" id="Shape"></path>
                        <path d="M56.746,31.738 C56.032,31.324 55.252,31.081 54.429,31.016 C53.88,30.976 53.397,31.383 53.354,31.935 C53.311,32.486 53.722,32.967 54.273,33.01 C54.795,33.051 55.29,33.205 55.743,33.468 C55.901,33.56 56.074,33.603 56.244,33.603 C56.589,33.603 56.925,33.424 57.11,33.105 C57.387,32.628 57.224,32.016 56.746,31.738 L56.746,31.738 Z" id="Shape"></path>
                        <path d="M30.064,58 L28.064,58 C27.511,58 27.064,58.447 27.064,59 C27.064,59.553 27.511,60 28.064,60 L30.064,60 C30.617,60 31.064,59.553 31.064,59 C31.064,58.447 30.616,58 30.064,58 L30.064,58 Z" id="Shape"></path>
                        <path d="M32.555,44.839 C32.654,44.325 32.862,43.85 33.174,43.426 C33.501,42.982 33.406,42.356 32.961,42.028 C32.516,41.702 31.891,41.796 31.563,42.241 C31.074,42.907 30.746,43.654 30.59,44.463 C30.486,45.005 30.841,45.529 31.384,45.634 C31.447,45.646 31.511,45.652 31.573,45.652 C32.043,45.65 32.462,45.317 32.555,44.839 L32.555,44.839 Z" id="Shape"></path>
                        <path d="M48.993,15 C52.025,15 54.493,12.532 54.493,9.5 C54.493,6.468 52.025,4 48.993,4 C45.961,4 43.493,6.468 43.493,9.5 C43.493,12.532 45.961,15 48.993,15 L48.993,15 Z M48.993,6 C50.923,6 52.493,7.57 52.493,9.5 C52.493,11.43 50.923,13 48.993,13 C47.063,13 45.493,11.43 45.493,9.5 C45.493,7.57 47.064,6 48.993,6 L48.993,6 Z" id="Shape"></path>
                        <path d="M12.493,31 C9.184,31 6.493,33.691 6.493,37 C6.493,40.309 9.184,43 12.493,43 C15.802,43 18.493,40.309 18.493,37 C18.493,33.691 15.802,31 12.493,31 L12.493,31 Z M12.493,41 C10.287,41 8.493,39.206 8.493,37 C8.493,34.794 10.287,33 12.493,33 C14.699,33 16.493,34.794 16.493,37 C16.493,39.206 14.699,41 12.493,41 L12.493,41 Z" id="Shape"></path>
                    </g>
                </g>
            </g>
        </g>
    </g>
</svg>