<?xml version="1.0" encoding="UTF-8" standalone="no"?>
<svg width="80px" height="80px" viewBox="0 0 80 80" version="1.1" xmlns="http://www.w3.org/2000/svg" xmlns:xlink="http://www.w3.org/1999/xlink">
    <!-- Generator: Sketch 39.1 (31720) - http://www.bohemiancoding.com/sketch -->
    <title>step-4</title>
    <desc>Created with Sketch.</desc>
    <defs></defs>
    <g id="Page-1" stroke="none" stroke-width="1" fill="none" fill-rule="evenodd">
        <g id="step-4">
            <g id="Group-5">
                <circle id="Oval-3-Copy-3" fill="#F7B926" cx="40" cy="40" r="40"></circle>
                <g id="Group" transform="translate(10.000000, 13.000000)" fill="#000000">
                    <path d="M8.03017021,26.5611064 L51.9698298,26.5611064 C52.4985957,26.5611064 52.9272766,26.1324255 52.9272766,25.6036596 C52.9272766,25.0748936 52.4985957,24.6462128 51.9698298,24.6462128 L8.03017021,24.6462128 C7.50140426,24.6462128 7.0727234,25.0748936 7.0727234,25.6036596 C7.0727234,26.1324255 7.50140426,26.5611064 8.03017021,26.5611064 L8.03017021,26.5611064 Z" id="Shape"></path>
                    <path d="M59.2508936,31.1346383 L56.0491915,22.7311915 L58.0212766,22.7311915 C58.5500426,22.7311915 58.9787234,22.3025106 58.9787234,21.7737447 C58.9787234,21.2449787 58.5500426,20.8162979 58.0212766,20.8162979 L55.319617,20.8162979 L51.9077872,11.861234 C51.017617,9.50514894 48.3473617,7.65957447 45.828766,7.65957447 L40.589617,7.65957447 L39.3261702,2.58434043 C38.9654043,1.13514894 37.5130213,0 36.0195319,0 L23.9803404,0 C22.4869787,0 21.0344681,1.13514894 20.6737021,2.58434043 L19.410383,7.65957447 L14.171234,7.65957447 C11.6545532,7.65957447 8.97702128,9.50004255 8.07459574,11.8521702 L4.66365957,20.8162979 L1.9787234,20.8162979 C1.44995745,20.8162979 1.0212766,21.2449787 1.0212766,21.7737447 C1.0212766,22.3025106 1.44995745,22.7311915 1.9787234,22.7311915 L3.93510638,22.7311915 L0.738,31.1334894 C0.324255319,32.2297021 0,34.0062128 0,35.1781277 L0,52.3723404 C0,52.9011064 0.428680851,53.3297872 0.957446809,53.3297872 L1.27659574,53.3297872 L1.27659574,59.0425532 C1.27659574,59.5713191 1.7052766,60 2.23404255,60 L11.0311915,60 C11.5599574,60 11.9886383,59.5713191 11.9886383,59.0425532 L11.9886383,56.2021277 C11.9886383,55.6733617 11.5599574,55.2446809 11.0311915,55.2446809 C10.5024255,55.2446809 10.0737447,55.6733617 10.0737447,56.2021277 L10.0737447,58.0851064 L3.19148936,58.0851064 L3.19148936,53.3297872 L56.8085106,53.3297872 L56.8085106,58.0851064 L49.9262553,58.0851064 L49.9262553,56.2021277 C49.9262553,55.6733617 49.4975745,55.2446809 48.9688085,55.2446809 C48.4400426,55.2446809 48.0113617,55.6733617 48.0113617,56.2021277 L48.0113617,59.0425532 C48.0113617,59.5713191 48.4400426,60 48.9688085,60 L57.7659574,60 C58.2947234,60 58.7234043,59.5713191 58.7234043,59.0425532 L58.7234043,53.3297872 L59.0425532,53.3297872 C59.5713191,53.3297872 60,52.9011064 60,52.3723404 L60,35.1781277 C60,34.0049362 59.6705106,32.2277872 59.2508936,31.1346383 L59.2508936,31.1346383 Z M22.5319149,3.04697872 C22.6793617,2.45451064 23.3697447,1.91489362 23.9803404,1.91489362 L36.0195319,1.91489362 C36.6301277,1.91489362 37.3205106,2.45451064 37.4679574,3.04685106 L38.6162553,7.65957447 L21.3837447,7.65957447 L22.5319149,3.04697872 L22.5319149,3.04697872 Z M1.91489362,35.1781277 C1.91489362,34.2347234 2.19638298,32.6923404 2.52868085,31.8122553 L6.16225532,22.2628085 C6.21842553,22.1684681 6.2592766,22.0640426 6.28034043,21.9524681 L9.86348936,12.5356596 C10.4791915,10.9305957 12.4520426,9.57446809 14.171234,9.57446809 L39.8375745,9.57446809 L45.828766,9.57446809 C47.5460426,9.57446809 49.5094468,10.931617 50.1173617,12.5405106 L57.462383,31.818766 C57.7999149,32.6979574 58.0851064,34.236383 58.0851064,35.178 L58.0851064,51.4148936 L1.91489362,51.4148936 L1.91489362,35.1781277 L1.91489362,35.1781277 Z" id="Shape"></path>
                    <path d="M4.78723404,48.7946809 L11.0311915,48.7946809 C11.5599574,48.7946809 11.9886383,48.366 11.9886383,47.837234 C11.9886383,47.3084681 11.5599574,46.8797872 11.0311915,46.8797872 L4.78723404,46.8797872 C4.25846809,46.8797872 3.82978723,47.3084681 3.82978723,47.837234 C3.82978723,48.366 4.25846809,48.7946809 4.78723404,48.7946809 L4.78723404,48.7946809 Z" id="Shape"></path>
                    <path d="M45.1390213,46.8797872 L14.8609787,46.8797872 C14.3322128,46.8797872 13.9035319,47.3084681 13.9035319,47.837234 C13.9035319,48.366 14.3322128,48.7946809 14.8609787,48.7946809 L45.1390213,48.7946809 C45.6677872,48.7946809 46.0964681,48.366 46.0964681,47.837234 C46.0964681,47.3084681 45.6677872,46.8797872 45.1390213,46.8797872 L45.1390213,46.8797872 Z" id="Shape"></path>
                    <path d="M55.212766,46.8797872 L48.9688085,46.8797872 C48.4400426,46.8797872 48.0113617,47.3084681 48.0113617,47.837234 C48.0113617,48.366 48.4400426,48.7946809 48.9688085,48.7946809 L55.212766,48.7946809 C55.7415319,48.7946809 56.1702128,48.366 56.1702128,47.837234 C56.1702128,47.3084681 55.7415319,46.8797872 55.212766,46.8797872 L55.212766,46.8797872 Z" id="Shape"></path>
                    <path d="M3.82978723,43.3021277 C3.82978723,43.8308936 4.25846809,44.2595745 4.78723404,44.2595745 L55.212766,44.2595745 C55.7415319,44.2595745 56.1702128,43.8308936 56.1702128,43.3021277 C56.1702128,42.7733617 55.7415319,42.3446809 55.212766,42.3446809 L45.8839149,42.3446809 C46.3360851,39.8762553 48.5015745,37.9991489 51.0985532,37.9991489 L55.2089362,37.9991489 C55.7377021,37.9991489 56.166383,37.5704681 56.166383,37.0417021 C56.166383,36.5129362 55.7377021,36.0842553 55.2089362,36.0842553 L51.0985532,36.0842553 C47.4434043,36.0842553 44.4163404,38.8159149 43.9462979,42.3446809 L16.0537021,42.3446809 C15.5836596,38.8160426 12.5564681,36.0842553 8.90144681,36.0842553 L4.79106383,36.0842553 C4.26229787,36.0842553 3.83361702,36.5129362 3.83361702,37.0417021 C3.83361702,37.5704681 4.26229787,37.9991489 4.79106383,37.9991489 L8.90144681,37.9991489 C11.4984255,37.9991489 13.6639149,39.8762553 14.1160851,42.3446809 L4.78723404,42.3446809 C4.25846809,42.3446809 3.82978723,42.7733617 3.82978723,43.3021277 L3.82978723,43.3021277 Z" id="Shape"></path>
                    <path d="M16.8088085,36.0842553 C16.2800426,36.0842553 15.8513617,36.5129362 15.8513617,37.0417021 C15.8513617,37.5704681 16.2800426,37.9991489 16.8088085,37.9991489 L43.1910638,37.9991489 C43.7198298,37.9991489 44.1485106,37.5704681 44.1485106,37.0417021 C44.1485106,36.5129362 43.7198298,36.0842553 43.1910638,36.0842553 L16.8088085,36.0842553 L16.8088085,36.0842553 Z" id="Shape"></path>
                    <path d="M34.9413191,3.82978723 L25.0588085,3.82978723 C24.5300426,3.82978723 24.1013617,4.25846809 24.1013617,4.78723404 C24.1013617,5.316 24.5300426,5.74468085 25.0588085,5.74468085 L34.9413191,5.74468085 C35.4700851,5.74468085 35.898766,5.316 35.898766,4.78723404 C35.898766,4.25846809 35.4700851,3.82978723 34.9413191,3.82978723 L34.9413191,3.82978723 Z" id="Shape"></path>
                </g>
            </g>
        </g>
    </g>
</svg>